<svg width="24" height="28" viewBox="0 0 24 28" fill="none" xmlns="http://www.w3.org/2000/svg">
<path d="M20.0455 14.8903C20.012 11.353 23.0969 9.63202 23.238 9.5519C21.4909 7.13402 18.7828 6.80366 17.8312 6.77732C15.5568 6.55013 13.3506 8.06912 12.192 8.06912C11.0103 8.06912 9.22612 6.79927 7.30322 6.83658C4.82876 6.8728 2.51388 8.23265 1.24428 10.3443C-1.37587 14.65 0.578254 20.9773 3.08855 24.4576C4.34428 26.1621 5.81161 28.0652 7.7322 27.9983C9.61117 27.9247 10.313 26.8612 12.5805 26.8612C14.8272 26.8612 15.4863 27.9983 17.445 27.9555C19.4616 27.9247 20.7312 26.2433 21.943 24.5235C23.3941 22.5698 23.9769 20.6458 24 20.5471C23.9526 20.5317 20.0837 19.1301 20.0455 14.8903Z" fill="white"/>
<path d="M16.3454 4.48785C17.356 3.28823 18.0474 1.65619 17.8555 0C16.3928 0.0614623 14.5635 0.960349 13.5102 2.13362C12.5782 3.1675 11.7457 4.86211 11.9607 6.45574C13.6038 6.57208 15.2908 5.6688 16.3454 4.48785Z" fill="white"/>
</svg>
