<svg width="215" height="122" viewBox="0 0 215 122" fill="none" xmlns="http://www.w3.org/2000/svg">
<path fill-rule="evenodd" clip-rule="evenodd" d="M180.135 10C180.135 4.47715 175.658 0 170.135 0H10C4.47715 0 0 4.47715 0 10C0 15.5228 4.47715 20 10 20H170.135C175.658 20 180.135 15.5228 180.135 10ZM215 36C215 32.6863 212.314 30 209 30H6C2.68629 30 0 32.6863 0 36C0 39.3137 2.68629 42 6 42H209C212.314 42 215 39.3137 215 36ZM0 56C0 52.6863 2.68629 50 6 50H197.378C200.692 50 203.378 52.6863 203.378 56C203.378 59.3137 200.692 62 197.378 62H6C2.68629 62 0 59.3137 0 56ZM215 76C215 72.6863 212.314 70 209 70H6C2.68629 70 0 72.6863 0 76C0 79.3137 2.68629 82 6 82H209C212.314 82 215 79.3137 215 76ZM0 96C0 92.6863 2.68629 90 6 90H197.378C200.692 90 203.378 92.6863 203.378 96C203.378 99.3137 200.692 102 197.378 102H6C2.68629 102 0 99.3137 0 96ZM203.378 116C203.378 112.686 200.692 110 197.378 110H6C2.68629 110 0 112.686 0 116C0 119.314 2.68629 122 6 122H197.378C200.692 122 203.378 119.314 203.378 116Z" fill="url(#paint0_linear_1031_5926)"/>
<defs>
<linearGradient id="paint0_linear_1031_5926" x1="107.5" y1="0" x2="107.5" y2="115.297" gradientUnits="userSpaceOnUse">
<stop stop-color="#EBF2FC"/>
<stop offset="1" stop-color="#EBF2FC" stop-opacity="0.2"/>
</linearGradient>
</defs>
</svg>
