<svg width="43" height="53" viewBox="0 0 43 53" fill="none" xmlns="http://www.w3.org/2000/svg">
<path d="M12.7162 45.1455H10.1953V37.3584H12.7961C13.5591 37.3584 14.2143 37.5143 14.7619 37.8261C15.3094 38.1353 15.7289 38.5802 16.0204 39.1607C16.3145 39.7386 16.4615 40.4319 16.4615 41.2405C16.4615 42.0517 16.3132 42.7488 16.0166 43.3318C15.7226 43.9148 15.2967 44.3635 14.739 44.6778C14.1814 44.9896 13.5071 45.1455 12.7162 45.1455ZM11.3702 44.1189H12.6516C13.2447 44.1189 13.7378 44.0073 14.1307 43.7843C14.5236 43.5587 14.8176 43.2329 15.0128 42.8071C15.208 42.3787 15.3056 41.8565 15.3056 41.2405C15.3056 40.6296 15.208 40.1113 15.0128 39.6854C14.8202 39.2596 14.5324 38.9364 14.1497 38.7158C13.7669 38.4953 13.2916 38.385 12.7238 38.385H11.3702V44.1189Z" fill="#0099FF"/>
<path d="M24.4726 41.252C24.4726 42.0834 24.3205 42.7982 24.0163 43.3964C23.7122 43.9921 23.2952 44.4509 22.7654 44.7729C22.2381 45.0923 21.6386 45.252 20.9669 45.252C20.2926 45.252 19.6906 45.0923 19.1608 44.7729C18.6336 44.4509 18.2179 43.9909 17.9137 43.3926C17.6095 42.7944 17.4574 42.0809 17.4574 41.252C17.4574 40.4205 17.6095 39.707 17.9137 39.1113C18.2179 38.513 18.6336 38.0542 19.1608 37.7348C19.6906 37.4129 20.2926 37.252 20.9669 37.252C21.6386 37.252 22.2381 37.4129 22.7654 37.7348C23.2952 38.0542 23.7122 38.513 24.0163 39.1113C24.3205 39.707 24.4726 40.4205 24.4726 41.252ZM23.3091 41.252C23.3091 40.6182 23.2065 40.0847 23.0011 39.6512C22.7983 39.2152 22.5195 38.8857 22.1646 38.6626C21.8123 38.437 21.413 38.3242 20.9669 38.3242C20.5182 38.3242 20.1177 38.437 19.7654 38.6626C19.413 38.8857 19.1342 39.2152 18.9289 39.6512C18.7261 40.0847 18.6247 40.6182 18.6247 41.252C18.6247 41.8857 18.7261 42.4205 18.9289 42.8565C19.1342 43.29 19.413 43.6195 19.7654 43.8451C20.1177 44.0682 20.5182 44.1797 20.9669 44.1797C21.413 44.1797 21.8123 44.0682 22.1646 43.8451C22.5195 43.6195 22.7983 43.29 23.0011 42.8565C23.2065 42.4205 23.3091 41.8857 23.3091 41.252Z" fill="#0099FF"/>
<path d="M32.191 39.8907H31.0047C30.959 39.6373 30.8741 39.4142 30.7499 39.2215C30.6257 39.0289 30.4736 38.8654 30.2936 38.731C30.1137 38.5967 29.9121 38.4953 29.6891 38.4269C29.4685 38.3584 29.2341 38.3242 28.9857 38.3242C28.537 38.3242 28.1352 38.437 27.7803 38.6626C27.428 38.8882 27.1492 39.219 26.9438 39.655C26.741 40.091 26.6396 40.6233 26.6396 41.252C26.6396 41.8857 26.741 42.4205 26.9438 42.8565C27.1492 43.2925 27.4293 43.622 27.7841 43.8451C28.139 44.0682 28.5383 44.1797 28.9819 44.1797C29.2277 44.1797 29.4609 44.1468 29.6815 44.0809C29.9045 44.0124 30.1061 43.9123 30.286 43.7805C30.466 43.6487 30.6181 43.4877 30.7423 43.2976C30.8691 43.1049 30.9565 42.8844 31.0047 42.636L32.191 42.6398C32.1276 43.0225 32.0047 43.3749 31.8222 43.6968C31.6422 44.0162 31.4102 44.2925 31.1263 44.5257C30.845 44.7564 30.523 44.9351 30.1606 45.0618C29.7981 45.1886 29.4026 45.252 28.9742 45.252C28.3 45.252 27.6992 45.0923 27.172 44.7729C26.6447 44.4509 26.229 43.9909 25.9248 43.3926C25.6232 42.7944 25.4723 42.0809 25.4723 41.252C25.4723 40.4205 25.6244 39.707 25.9286 39.1113C26.2328 38.513 26.6485 38.0542 27.1758 37.7348C27.703 37.4129 28.3025 37.252 28.9742 37.252C29.3874 37.252 29.7727 37.3115 30.1301 37.4307C30.4901 37.5473 30.8133 37.7196 31.0997 37.9478C31.3862 38.1734 31.6232 38.4497 31.8107 38.7767C31.9983 39.1011 32.1251 39.4725 32.191 39.8907Z" fill="#0099FF"/>
<path fill-rule="evenodd" clip-rule="evenodd" d="M3.19531 2.25195C2.64303 2.25195 2.19531 2.69967 2.19531 3.25195L2.19531 30.252H40.1953V12.2113C40.0635 12.2379 39.9252 12.252 39.7811 12.252L33.1953 12.252C31.5385 12.252 30.1953 10.9088 30.1953 9.25197V2.66618C30.1953 2.52206 30.2094 2.38376 30.236 2.25195L3.19531 2.25195ZM2.19531 48.252L2.19531 32.252L40.1953 32.252V48.252C40.1953 49.3565 39.2999 50.252 38.1953 50.252L4.19531 50.252C3.09074 50.252 2.19531 49.3565 2.19531 48.252ZM0.195313 3.25195L0.195313 30.252L0.195313 48.252L0.195313 49.252C0.195313 50.9088 1.53846 52.252 3.19531 52.252L4.19531 52.252H38.1953L39.1953 52.252C40.8522 52.252 42.1953 50.9088 42.1953 49.252V48.252V30.252V11.0471C42.1953 10.2811 41.9023 9.54413 41.3764 8.98724L34.0143 1.19208C33.4475 0.592016 32.6586 0.251953 31.8332 0.251953L3.19531 0.251953C1.53846 0.251953 0.195313 1.5951 0.195313 3.25195ZM32.1953 9.25197L32.1953 2.66618L39.7811 10.252L33.1953 10.252C32.643 10.252 32.1953 9.80425 32.1953 9.25197Z" fill="#1B48BB"/>
<path d="M16.0331 25.252L12.1953 11.252H13.4951L16.6694 23.29H16.7788L19.9531 11.252H21.4307L24.605 23.29H24.7144L27.8887 11.252H29.1953L25.3575 25.252H23.9893L20.7398 13.3779H20.6508L17.4013 25.252H16.0331Z" fill="#1B48BB"/>
</svg>
