<svg width="106" height="18" viewBox="0 0 106 18" fill="none" xmlns="http://www.w3.org/2000/svg">
<path d="M13.2451 17.0047C12.8476 17.0047 12.3376 16.8772 11.7001 16.5022L9.45759 15.1747C9.22509 15.0397 8.77509 15.0397 8.55009 15.1747L6.30009 16.5022C4.97259 17.2897 4.19259 16.9747 3.84009 16.7197C3.49509 16.4647 2.95509 15.8122 3.30759 14.3122L3.84009 12.0097C3.90009 11.7697 3.78009 11.3572 3.60009 11.1772L1.74009 9.31719C0.810088 8.38719 0.885088 7.59219 1.01259 7.20219C1.14009 6.81219 1.54509 6.12219 2.83509 5.90469L5.22759 5.50719C5.45259 5.46969 5.77509 5.22969 5.87259 5.02719L7.20009 2.37969C7.80009 1.17219 8.58759 0.992188 9.00009 0.992188C9.41259 0.992188 10.2001 1.17219 10.8001 2.37969L12.1201 5.01969C12.2251 5.22219 12.5476 5.46219 12.7726 5.49969L15.1651 5.89719C16.4626 6.11469 16.8676 6.80469 16.9876 7.19469C17.1076 7.58469 17.1826 8.37969 16.2601 9.30969L14.4001 11.1772C14.2201 11.3572 14.1076 11.7622 14.1601 12.0097L14.6926 14.3122C15.0376 15.8122 14.5051 16.4647 14.1601 16.7197C13.9726 16.8547 13.6726 17.0047 13.2451 17.0047Z" fill="#FFBF00"/>
<path d="M35.2451 17.0047C34.8476 17.0047 34.3376 16.8772 33.7001 16.5022L31.4576 15.1747C31.2251 15.0397 30.7751 15.0397 30.5501 15.1747L28.3001 16.5022C26.9726 17.2897 26.1926 16.9747 25.8401 16.7197C25.4951 16.4647 24.9551 15.8122 25.3076 14.3122L25.8401 12.0097C25.9001 11.7697 25.7801 11.3572 25.6001 11.1772L23.7401 9.31719C22.8101 8.38719 22.8851 7.59219 23.0126 7.20219C23.1401 6.81219 23.5451 6.12219 24.8351 5.90469L27.2276 5.50719C27.4526 5.46969 27.7751 5.22969 27.8726 5.02719L29.2001 2.37969C29.8001 1.17219 30.5876 0.992188 31.0001 0.992188C31.4126 0.992188 32.2001 1.17219 32.8001 2.37969L34.1201 5.01969C34.2251 5.22219 34.5476 5.46219 34.7726 5.49969L37.1651 5.89719C38.4626 6.11469 38.8676 6.80469 38.9876 7.19469C39.1076 7.58469 39.1826 8.37969 38.2601 9.30969L36.4001 11.1772C36.2201 11.3572 36.1076 11.7622 36.1601 12.0097L36.6926 14.3122C37.0376 15.8122 36.5051 16.4647 36.1601 16.7197C35.9726 16.8547 35.6726 17.0047 35.2451 17.0047Z" fill="#FFBF00"/>
<path d="M57.2451 17.0047C56.8476 17.0047 56.3376 16.8772 55.7001 16.5022L53.4576 15.1747C53.2251 15.0397 52.7751 15.0397 52.5501 15.1747L50.3001 16.5022C48.9726 17.2897 48.1926 16.9747 47.8401 16.7197C47.4951 16.4647 46.9551 15.8122 47.3076 14.3122L47.8401 12.0097C47.9001 11.7697 47.7801 11.3572 47.6001 11.1772L45.7401 9.31719C44.8101 8.38719 44.8851 7.59219 45.0126 7.20219C45.1401 6.81219 45.5451 6.12219 46.8351 5.90469L49.2276 5.50719C49.4526 5.46969 49.7751 5.22969 49.8726 5.02719L51.2001 2.37969C51.8001 1.17219 52.5876 0.992188 53.0001 0.992188C53.4126 0.992188 54.2001 1.17219 54.8001 2.37969L56.1201 5.01969C56.2251 5.22219 56.5476 5.46219 56.7726 5.49969L59.1651 5.89719C60.4626 6.11469 60.8676 6.80469 60.9876 7.19469C61.1076 7.58469 61.1826 8.37969 60.2601 9.30969L58.4001 11.1772C58.2201 11.3572 58.1076 11.7622 58.1601 12.0097L58.6926 14.3122C59.0376 15.8122 58.5051 16.4647 58.1601 16.7197C57.9726 16.8547 57.6726 17.0047 57.2451 17.0047Z" fill="#FFBF00"/>
<path d="M79.2451 17.0047C78.8476 17.0047 78.3376 16.8772 77.7001 16.5022L75.4576 15.1747C75.2251 15.0397 74.7751 15.0397 74.5501 15.1747L72.3001 16.5022C70.9726 17.2897 70.1926 16.9747 69.8401 16.7197C69.4951 16.4647 68.9551 15.8122 69.3076 14.3122L69.8401 12.0097C69.9001 11.7697 69.7801 11.3572 69.6001 11.1772L67.7401 9.31719C66.8101 8.38719 66.8851 7.59219 67.0126 7.20219C67.1401 6.81219 67.5451 6.12219 68.8351 5.90469L71.2276 5.50719C71.4526 5.46969 71.7751 5.22969 71.8726 5.02719L73.2001 2.37969C73.8001 1.17219 74.5876 0.992188 75.0001 0.992188C75.4126 0.992188 76.2001 1.17219 76.8001 2.37969L78.1201 5.01969C78.2251 5.22219 78.5476 5.46219 78.7726 5.49969L81.1651 5.89719C82.4626 6.11469 82.8676 6.80469 82.9876 7.19469C83.1076 7.58469 83.1826 8.37969 82.2601 9.30969L80.4001 11.1772C80.2201 11.3572 80.1076 11.7622 80.1601 12.0097L80.6926 14.3122C81.0376 15.8122 80.5051 16.4647 80.1601 16.7197C79.9726 16.8547 79.6726 17.0047 79.2451 17.0047Z" fill="#FFBF00"/>
<path d="M101.245 17.0047C100.848 17.0047 100.338 16.8772 99.7001 16.5022L97.4576 15.1747C97.2251 15.0397 96.7751 15.0397 96.5501 15.1747L94.3001 16.5022C92.9726 17.2897 92.1926 16.9747 91.8401 16.7197C91.4951 16.4647 90.9551 15.8122 91.3076 14.3122L91.8401 12.0097C91.9001 11.7697 91.7801 11.3572 91.6001 11.1772L89.7401 9.31719C88.8101 8.38719 88.8851 7.59219 89.0126 7.20219C89.1401 6.81219 89.5451 6.12219 90.8351 5.90469L93.2276 5.50719C93.4526 5.46969 93.7751 5.22969 93.8726 5.02719L95.2001 2.37969C95.8001 1.17219 96.5876 0.992188 97.0001 0.992188C97.4126 0.992188 98.2001 1.17219 98.8001 2.37969L100.12 5.01969C100.225 5.22219 100.548 5.46219 100.773 5.49969L103.165 5.89719C104.463 6.11469 104.868 6.80469 104.988 7.19469C105.108 7.58469 105.183 8.37969 104.26 9.30969L102.4 11.1772C102.22 11.3572 102.108 11.7622 102.16 12.0097L102.693 14.3122C103.038 15.8122 102.505 16.4647 102.16 16.7197C101.973 16.8547 101.673 17.0047 101.245 17.0047Z" fill="#FFBF00"/>
</svg>
