<svg width="26" height="26" viewBox="0 0 26 26" fill="none" xmlns="http://www.w3.org/2000/svg">
<path d="M10.8346 19.1749H6.7288C2.61214 19.1749 1.35547 17.9182 1.35547 13.8016V7.30156C1.35547 3.18489 2.61214 1.92822 6.7288 1.92822H18.1363C22.253 1.92822 23.5096 3.18489 23.5096 7.30156C23.5096 7.74572 23.1413 8.11406 22.6971 8.11406C22.253 8.11406 21.8846 7.74572 21.8846 7.30156C21.8846 4.11656 21.3213 3.55322 18.1363 3.55322H6.7288C3.5438 3.55322 2.98047 4.11656 2.98047 7.30156V13.8016C2.98047 16.9866 3.5438 17.5499 6.7288 17.5499H10.8346C11.2788 17.5499 11.6471 17.9182 11.6471 18.3624C11.6471 18.8066 11.2788 19.1749 10.8346 19.1749Z" fill="#1B48BB"/>
<path d="M10.832 24.0716C10.3879 24.0716 10.0195 23.7032 10.0195 23.2591V18.3516C10.0195 17.9074 10.3879 17.5391 10.832 17.5391C11.2762 17.5391 11.6445 17.9074 11.6445 18.3516V23.2591C11.6445 23.7141 11.2762 24.0716 10.832 24.0716Z" fill="#1B48BB"/>
<path d="M10.8346 14.8418H2.16797C1.7238 14.8418 1.35547 14.4735 1.35547 14.0293C1.35547 13.5851 1.7238 13.2168 2.16797 13.2168H10.8346C11.2788 13.2168 11.6471 13.5851 11.6471 14.0293C11.6471 14.4735 11.2788 14.8418 10.8346 14.8418Z" fill="#1B48BB"/>
<path d="M10.8324 24.0718H7.30078C6.85661 24.0718 6.48828 23.7034 6.48828 23.2593C6.48828 22.8151 6.85661 22.4468 7.30078 22.4468H10.8324C11.2766 22.4468 11.6449 22.8151 11.6449 23.2593C11.6449 23.7034 11.2766 24.0718 10.8324 24.0718Z" fill="#1B48BB"/>
<path d="M20.6267 24.0718H16.7809C13.7801 24.0718 12.7617 23.0535 12.7617 20.0527V13.8668C12.7617 10.866 13.7801 9.84766 16.7809 9.84766H20.6267C23.6276 9.84766 24.6459 10.866 24.6459 13.8668V20.0527C24.6459 23.0643 23.6276 24.0718 20.6267 24.0718ZM16.7809 11.4727C14.6576 11.4727 14.3867 11.7435 14.3867 13.8668V20.0527C14.3867 22.176 14.6576 22.4468 16.7809 22.4468H20.6267C22.7501 22.4468 23.0209 22.176 23.0209 20.0527V13.8668C23.0209 11.7435 22.7501 11.4727 20.6267 11.4727H16.7809Z" fill="#0099FF"/>
<path d="M18.7435 20.5507C18.4618 20.5507 18.1802 20.4424 17.9743 20.2365C17.8768 20.139 17.801 20.0199 17.7468 19.8899C17.6927 19.749 17.6602 19.6082 17.6602 19.4674C17.6602 19.1857 17.7793 18.904 17.9743 18.709C18.2235 18.4599 18.6027 18.3407 18.9602 18.4057C19.0252 18.4274 19.0902 18.449 19.1552 18.4707C19.2202 18.5032 19.2852 18.5357 19.3393 18.5682C19.4043 18.6115 19.4585 18.6549 19.5127 18.709C19.7077 18.904 19.8268 19.1857 19.8268 19.4674C19.8268 19.6082 19.7943 19.749 19.7402 19.8899C19.686 20.0199 19.6102 20.139 19.5127 20.2365C19.4585 20.2907 19.4043 20.334 19.3393 20.3665C19.2852 20.4099 19.2202 20.4424 19.1552 20.4749C19.0902 20.4965 19.0252 20.5182 18.9602 20.529C18.8843 20.5507 18.8193 20.5507 18.7435 20.5507Z" fill="#1B48BB"/>
</svg>
