<svg width="43" height="53" viewBox="0 0 43 53" fill="none" xmlns="http://www.w3.org/2000/svg">
<path fill-rule="evenodd" clip-rule="evenodd" d="M21.0106 6.73243C20.6866 6.29251 20.2724 6.07074 19.7895 6.16105C19.6609 6.18511 19.4974 6.30154 19.3594 6.67512C19.2237 7.04254 19.1512 7.57023 19.1587 8.20483C19.1736 9.47008 19.5042 11.0306 20.1008 12.2886C20.245 12.5927 20.4121 12.9125 20.5982 13.2427C20.6859 12.911 20.7699 12.5767 20.8494 12.2456C21.0548 11.3891 21.2269 10.564 21.3473 9.87494C21.4694 9.17574 21.5331 8.64517 21.5331 8.36313C21.5331 7.81006 21.3413 7.18147 21.0106 6.73243ZM21.2153 14.2679C21.3859 13.6704 21.5457 13.0556 21.6889 12.4587C21.8981 11.5867 22.0742 10.7428 22.1984 10.0322C22.3207 9.33181 22.3979 8.73211 22.3979 8.36313C22.3979 7.62856 22.1515 6.80856 21.6999 6.19531C21.2415 5.57294 20.529 5.1187 19.6348 5.28592C19.075 5.39062 18.7377 5.85363 18.551 6.35926C18.362 6.87104 18.2858 7.52234 18.294 8.21561C18.3104 9.6061 18.6683 11.2969 19.3236 12.6785C19.5812 13.2217 19.904 13.8055 20.2725 14.4049C19.9875 15.362 19.682 16.2332 19.3858 16.8603C19.2324 17.1854 19.0561 17.5905 18.8561 18.05C18.6149 18.6044 18.3391 19.2381 18.0275 19.9057C16.0038 20.5543 14.2475 21.4155 12.9193 22.3076C12.2355 22.7669 11.6582 23.2389 11.2149 23.7002C10.7766 24.1564 10.4457 24.6263 10.2905 25.085C10.1594 25.4728 10.1662 25.8442 10.3043 26.1723C10.4389 26.4924 10.6798 26.7277 10.9436 26.8913C11.4602 27.2115 12.1528 27.3138 12.7127 27.2145C13.7389 27.0325 14.6484 26.4205 15.4394 25.6195C16.232 24.8169 16.9326 23.7976 17.5409 22.7465C17.9418 22.0539 18.3091 21.3349 18.6396 20.6438C20.4232 20.0928 22.2765 19.5948 23.9985 19.2468C24.5879 19.8638 25.1707 20.4051 25.7119 20.8226C26.8585 21.7072 28.1512 22.0504 29.2359 22.1062C29.7787 22.1341 30.2773 22.0905 30.6893 22.0023C31.0869 21.9172 31.4515 21.7805 31.687 21.5867C32.1812 21.1801 32.3428 20.3588 32.0515 19.6299C31.7448 18.8622 30.9661 18.212 29.6137 17.9686C28.2835 17.7291 26.4528 17.8866 24.4714 18.2505C24.4134 18.2612 24.3552 18.272 24.2968 18.283C23.8125 17.7552 23.323 17.1753 22.8501 16.5706C22.2593 15.8152 21.7007 15.0291 21.2153 14.2679ZM20.8856 15.355C20.6525 16.0759 20.4078 16.732 20.1637 17.2489C20.0269 17.5386 19.862 17.9176 19.6706 18.3572C19.5113 18.7233 19.3337 19.1314 19.1387 19.5652C20.5258 19.1531 21.9433 18.7781 23.3009 18.485C22.9198 18.0522 22.5418 17.5956 22.1763 17.1281C21.7244 16.5503 21.288 15.9514 20.8856 15.355ZM25.0375 19.0528C25.4527 19.4626 25.8554 19.8214 26.2308 20.1111C27.2124 20.8684 28.3294 21.169 29.279 21.2178C29.7534 21.2422 30.178 21.2032 30.5131 21.1315C30.8628 21.0566 31.0693 20.9559 31.1468 20.8922C31.2785 20.7838 31.4299 20.414 31.2517 19.968C31.089 19.5607 30.6158 19.052 29.4646 18.8447C28.3744 18.6485 26.825 18.7487 25.0375 19.0528ZM17.4811 21.029C15.8672 21.6134 14.4714 22.3275 13.392 23.0524C12.7458 23.4864 12.2198 23.9198 11.8299 24.3255C11.4349 24.7366 11.2025 25.0956 11.1073 25.3772C11.0381 25.5817 11.0564 25.7205 11.0979 25.8191C11.1428 25.9258 11.2359 26.034 11.39 26.1295C11.709 26.3272 12.1868 26.4052 12.5658 26.338C13.3548 26.1981 14.1119 25.7156 14.8328 24.9856C15.5522 24.2571 16.2091 23.3088 16.7978 22.2915C17.0395 21.8741 17.2671 21.4498 17.4811 21.029Z" fill="#1B48BB"/>
<path d="M11.1963 45.251V37.251H13.9754C14.5819 37.251 15.0845 37.3643 15.4829 37.5908C15.8814 37.8174 16.1796 38.1273 16.3776 38.5205C16.5755 38.9111 16.6745 39.3512 16.6745 39.8408C16.6745 40.333 16.5743 40.7757 16.3738 41.1689C16.1758 41.5596 15.8763 41.8695 15.4753 42.0986C15.0768 42.3252 14.5756 42.4385 13.9716 42.4385H12.0605V41.415H13.865C14.2482 41.415 14.5591 41.3473 14.7977 41.2119C15.0362 41.0739 15.2114 40.8864 15.323 40.6494C15.4347 40.4124 15.4905 40.1429 15.4905 39.8408C15.4905 39.5387 15.4347 39.2705 15.323 39.0361C15.2114 38.8018 15.035 38.6182 14.7939 38.4854C14.5553 38.3525 14.2406 38.2861 13.8497 38.2861H12.3726V45.251H11.1963Z" fill="#0099FF"/>
<path d="M20.3632 45.251H17.8392V37.251H20.4431C21.2071 37.251 21.8631 37.4111 22.4113 37.7314C22.9595 38.0492 23.3796 38.5062 23.6714 39.1025C23.9658 39.6963 24.113 40.4085 24.113 41.2393C24.113 42.0726 23.9646 42.7887 23.6676 43.3877C23.3732 43.9867 22.9468 44.4476 22.3885 44.7705C21.8301 45.0908 21.155 45.251 20.3632 45.251ZM19.0155 44.1963H20.2985C20.8923 44.1963 21.386 44.0817 21.7794 43.8525C22.1728 43.6208 22.4672 43.2861 22.6626 42.8486C22.858 42.4085 22.9557 41.8721 22.9557 41.2393C22.9557 40.6117 22.858 40.0791 22.6626 39.6416C22.4697 39.2041 22.1816 38.8721 21.7984 38.6455C21.4152 38.4189 20.9393 38.3057 20.3708 38.3057H19.0155V44.1963Z" fill="#0099FF"/>
<path d="M25.3615 45.251V37.251H30.1963V38.29H26.5378V40.7275H29.8499V41.7627H26.5378V45.251H25.3615Z" fill="#0099FF"/>
<path fill-rule="evenodd" clip-rule="evenodd" d="M3.19629 2.25098C2.64401 2.25098 2.19629 2.69869 2.19629 3.25098L2.19629 30.251L40.1963 30.251V12.2103C40.0645 12.2369 39.9262 12.251 39.7821 12.251H33.1963C31.5394 12.251 30.1963 10.9078 30.1963 9.25099V2.6652C30.1963 2.52109 30.2104 2.38279 30.237 2.25098L3.19629 2.25098ZM2.19629 48.251L2.19629 32.251L40.1963 32.251V48.251C40.1963 49.3555 39.3009 50.251 38.1963 50.251H4.19629C3.09172 50.251 2.19629 49.3555 2.19629 48.251ZM0.196289 3.25098L0.196289 30.251L0.196289 48.251L0.196289 49.251C0.196289 50.9078 1.53944 52.251 3.19629 52.251L4.19629 52.251H38.1963L39.1963 52.251C40.8531 52.251 42.1963 50.9078 42.1963 49.251L42.1963 48.251V30.251L42.1963 11.0461C42.1963 10.2801 41.9033 9.54315 41.3773 8.98626L34.0152 1.19111C33.4485 0.59104 32.6596 0.250977 31.8342 0.250977L3.19629 0.250977C1.53943 0.250977 0.196289 1.59412 0.196289 3.25098ZM32.1963 9.25099L32.1963 2.6652L39.7821 10.251L33.1963 10.251C32.644 10.251 32.1963 9.80328 32.1963 9.25099Z" fill="#1B48BB"/>
</svg>
