<svg width="53" height="53" viewBox="0 0 53 53" fill="none" xmlns="http://www.w3.org/2000/svg">
<path fill-rule="evenodd" clip-rule="evenodd" d="M41.9323 11.0723L32.1463 5.42217H20.8543L11.0683 11.0723L5.42216 20.8519V32.1426L11.0738 41.9317L20.8513 47.5769H32.1493L41.9268 41.9317L47.5757 32.1472V20.8472L41.9323 11.0723ZM40.9323 9.34019L34.1463 5.42217H38.5757C38.6072 5.42217 38.6386 5.42233 38.67 5.42265C38.6855 5.44889 38.7009 5.47523 38.7162 5.50168L40.9323 9.34019ZM43.6643 12.0723L47.5757 18.8472V14.4222C47.5757 14.3917 47.5756 14.3613 47.5753 14.3308C47.549 14.3153 47.5226 14.2999 47.4962 14.2846L43.6643 12.0723ZM48.5757 22.5793V30.4151L50.7904 26.579C50.8062 26.5518 50.8217 26.5245 50.8371 26.4972C50.8226 26.4715 50.808 26.4458 50.7932 26.4202L48.5757 22.5793ZM51.3609 25.4035L48.5757 20.5793V15.0156C51.6939 17.4725 52.8316 21.7165 51.3609 25.4035ZM51.3614 27.59L48.5757 32.4151V37.9857C51.6975 35.5279 52.8359 31.2795 51.3614 27.59ZM48.5544 39.2356C52.725 36.455 54.1893 30.9902 51.9678 26.4968C54.1848 22.0056 52.7212 16.5455 48.5545 13.7655C48.2305 8.76687 44.2337 4.76914 39.2355 4.44359C36.4548 0.275413 30.9924 -1.18796 26.5003 1.03205C22.0083 -1.18793 16.5459 0.275372 13.7652 4.44341C8.76502 4.76769 4.76645 8.76693 4.44325 13.7674C0.278733 16.548 -1.18378 22.0065 1.03272 26.4968C-1.18823 30.9892 0.274958 36.4526 4.44339 39.2337C4.76761 44.2341 8.76718 48.2329 13.768 48.5558C16.5481 52.723 22.0088 54.1865 26.5003 51.9685C30.9918 54.1865 36.4526 52.7229 39.2327 48.5557C44.2316 48.2314 48.2294 44.2342 48.5544 39.2356ZM47.5753 38.67C47.5756 38.639 47.5757 38.608 47.5757 38.5769V34.1472L43.6589 40.9316L47.4989 38.7145C47.5245 38.6998 47.5499 38.6849 47.5753 38.67ZM42.6589 42.6637L47.4823 39.8789C46.9129 43.8079 43.8054 46.915 39.8762 47.4836L42.6589 42.6637ZM40.9268 43.6637L34.1492 47.5769H38.5757C38.5952 47.5769 38.6146 47.5768 38.6341 47.5767C38.6452 47.5766 38.6563 47.5765 38.6674 47.5764C38.6828 47.5502 38.6982 47.5239 38.7135 47.4975L40.9268 43.6637ZM30.4172 48.5769H22.5833L26.4194 50.7917C26.4463 50.8072 26.4733 50.8226 26.5003 50.8379C26.5273 50.8226 26.5543 50.8072 26.5812 50.7917L30.4172 48.5769ZM27.5938 51.3618L32.4172 48.5769H37.9826C35.5256 51.6955 31.2811 52.8332 27.5938 51.3618ZM25.4068 51.3618L20.5834 48.5769H15.0179C17.4749 51.6955 21.7195 52.8332 25.4068 51.3618ZM14.3332 47.5765C14.3628 47.5767 14.3925 47.5769 14.4222 47.5769H18.8514L12.0737 43.6637L14.2871 47.4975C14.3024 47.5239 14.3177 47.5502 14.3332 47.5765ZM9.34172 40.9317L5.42216 34.1426V38.5769C5.42216 38.6074 5.42232 38.6379 5.42262 38.6684C5.44886 38.6839 5.47521 38.6993 5.50167 38.7145L9.34172 40.9317ZM4.42216 30.4105V22.584L2.20739 26.4202C2.1926 26.4458 2.17795 26.4715 2.16343 26.4972C2.17884 26.5245 2.19441 26.5518 2.21013 26.579L4.42216 30.4105ZM1.63914 27.59L4.42216 32.4105V37.9836C1.3024 35.5255 0.165042 31.2784 1.63914 27.59ZM1.63964 25.4035L4.42216 20.5839V15.0177C1.30606 17.4749 0.169365 21.7175 1.63964 25.4035ZM5.4226 14.3324C5.42231 14.3623 5.42216 14.3922 5.42216 14.4222V18.8518L9.33624 12.0723L5.5044 14.2846C5.47702 14.3005 5.44975 14.3164 5.4226 14.3324ZM12.0683 9.34019L18.8543 5.42217H14.4222C14.3916 5.42217 14.361 5.42232 14.3305 5.42263C14.315 5.44887 14.2996 5.47522 14.2844 5.50168L12.0683 9.34019ZM22.5863 4.42217H30.4143L26.5785 2.20749C26.5524 2.19247 26.5264 2.17759 26.5003 2.16286C26.4742 2.17759 26.4481 2.19247 26.4221 2.20749L22.5863 4.42217ZM25.4073 1.63869L20.5863 4.42217H15.0153C17.473 1.30274 21.7193 0.165308 25.4073 1.63869ZM27.5933 1.63869L32.4143 4.42217H37.9853C35.5276 1.30274 31.2813 0.165312 27.5933 1.63869ZM10.3362 10.3402L5.51513 13.1237C6.0831 9.19305 9.19132 6.08426 13.1217 5.51543L10.3362 10.3402ZM10.3417 42.6637L13.1247 47.4841C9.19348 46.9164 6.08422 43.808 5.5154 39.8772L10.3417 42.6637ZM39.8791 5.51585C43.8075 6.08572 46.914 9.19314 47.4825 13.1221L42.6643 10.3402L39.8791 5.51585Z" fill="url(#paint0_linear_1701_739)"/>
<defs>
<linearGradient id="paint0_linear_1701_739" x1="1.43245" y1="4.86019" x2="61.2373" y2="24.7045" gradientUnits="userSpaceOnUse">
<stop stop-color="#C583D4"/>
<stop offset="1" stop-color="#96B8F8"/>
</linearGradient>
</defs>
</svg>
