<svg width="24" height="24" viewBox="0 0 24 24" fill="none" xmlns="http://www.w3.org/2000/svg">
<path d="M17 18.75H7C6.25 18.75 5.7 18.72 5.23 18.65C1.91 18.29 1.25 16.3 1.25 13V11C1.25 7.7 1.91 5.71 5.26 5.34C5.7 5.28 6.25 5.25 7 5.25H17C17.75 5.25 18.3 5.28 18.77 5.35C22.1 5.72 22.75 7.7 22.75 11V13C22.75 16.3 22.09 18.29 18.74 18.66C18.3 18.72 17.75 18.75 17 18.75ZM7 6.75C6.32 6.75 5.84 6.78 5.45 6.83C3.42 7.06 2.75 7.69 2.75 11V13C2.75 16.31 3.42 16.94 5.42 17.17C5.84 17.23 6.32 17.25 7 17.25H17C17.68 17.25 18.16 17.22 18.55 17.17C20.58 16.95 21.25 16.31 21.25 13V11C21.25 7.69 20.58 7.06 18.58 6.83C18.16 6.77 17.68 6.75 17 6.75H7Z" fill="#2233A8"/>
<path d="M15.3281 22.7497H8.66813C5.56813 22.7497 4.57812 21.7597 4.57812 18.6697V18.3297C4.57812 18.1597 4.57813 18.0097 4.58813 17.8597C4.59813 17.6497 4.69812 17.4597 4.86812 17.3297C5.02812 17.1997 5.23812 17.1397 5.44812 17.1697C5.84812 17.2297 6.32812 17.2497 6.99813 17.2497H16.9981C17.6781 17.2497 18.1581 17.2197 18.5481 17.1697C18.7581 17.1397 18.9681 17.1997 19.1281 17.3297C19.2881 17.4597 19.3881 17.6497 19.4081 17.8597C19.4181 18.0197 19.4181 18.1597 19.4181 18.3297V18.6697C19.4181 21.7597 18.4281 22.7497 15.3281 22.7497ZM6.07812 18.7297C6.08812 20.9197 6.43813 21.2497 8.66813 21.2497H15.3281C17.5581 21.2497 17.9081 20.9197 17.9181 18.7297C17.6481 18.7397 17.3481 18.7497 16.9981 18.7497H6.99813C6.64813 18.7497 6.34812 18.7397 6.07812 18.7297Z" fill="#2233A8"/>
<path d="M18.6581 6.84C18.6181 6.84 18.5881 6.84 18.5481 6.83C18.1481 6.77 17.6681 6.75 16.9981 6.75H6.99813C6.31813 6.75 5.83812 6.78 5.44812 6.83C5.23812 6.86 5.02812 6.8 4.86812 6.67C4.70812 6.54 4.60813 6.35 4.58813 6.14C4.57813 5.98 4.57812 5.84 4.57812 5.67V5.33C4.57812 2.24 5.56813 1.25 8.66813 1.25H15.3281C18.4281 1.25 19.4181 2.24 19.4181 5.33V5.67C19.4181 5.84 19.4181 5.99 19.4081 6.14C19.3981 6.35 19.2981 6.54 19.1281 6.67C18.9981 6.78 18.8281 6.84 18.6581 6.84ZM6.99813 5.25H16.9981C17.3481 5.25 17.6481 5.26 17.9181 5.27C17.9081 3.08 17.5581 2.75 15.3281 2.75H8.66813C6.43813 2.75 6.08812 3.08 6.07812 5.27C6.34812 5.26 6.64813 5.25 6.99813 5.25Z" fill="#2233A8"/>
</svg>
