<svg width="172" height="98" viewBox="0 0 172 98" fill="none" xmlns="http://www.w3.org/2000/svg">
<path d="M85 50L85.3688 50.9295L85 50ZM14 55L13.1326 55.4977L14 55ZM172 90L161.049 86.3378L163.353 97.6527L172 90ZM0.95018 4.25702C1.12184 4.78195 1.68654 5.06833 2.21147 4.89667C2.7364 4.72501 3.02278 4.16032 2.85112 3.63539L0.95018 4.25702ZM4.95676 9.37365C4.74889 8.86197 4.16558 8.61569 3.65391 8.82356C3.14224 9.03143 2.89596 9.61474 3.10383 10.1264L4.95676 9.37365ZM5.64479 15.8388C5.88545 16.3359 6.48351 16.5438 6.98061 16.3032C7.4777 16.0625 7.68559 15.4645 7.44494 14.9674L5.64479 15.8388ZM10.2888 20.3877C10.0164 19.9072 9.40611 19.7386 8.92568 20.011C8.44525 20.2834 8.2766 20.8937 8.549 21.3741L10.2888 20.3877ZM11.8141 26.7071C12.1185 27.168 12.7388 27.2949 13.1996 26.9905C13.6605 26.6862 13.7874 26.0659 13.483 25.605L11.8141 26.7071ZM17.0325 30.5809C16.6954 30.1435 16.0675 30.0622 15.63 30.3993C15.1926 30.7365 15.1113 31.3644 15.4484 31.8018L17.0325 30.5809ZM19.4649 36.6096C19.836 37.0187 20.4684 37.0496 20.8775 36.6786C21.2866 36.3076 21.3175 35.6751 20.9464 35.266L19.4649 36.6096ZM25.2338 39.599C24.828 39.2243 24.1954 39.2495 23.8207 39.6552C23.446 40.061 23.4711 40.6936 23.8769 41.0683L25.2338 39.599ZM28.6918 45.1023C29.1324 45.4354 29.7595 45.3483 30.0926 44.9078C30.4257 44.4673 30.3387 43.8402 29.8981 43.507L28.6918 45.1023ZM34.9299 46.9071C34.456 46.6234 33.8419 46.7776 33.5583 47.2515C33.2746 47.7253 33.4288 48.3394 33.9027 48.6231L34.9299 46.9071ZM39.4827 51.5394C39.9864 51.7659 40.5783 51.5412 40.8048 51.0375C41.0313 50.5338 40.8065 49.9418 40.3028 49.7153L39.4827 51.5394ZM45.9684 51.8571C45.4407 51.6941 44.8808 51.9898 44.7178 52.5174C44.5548 53.0451 44.8504 53.605 45.3781 53.768L45.9684 51.8571ZM51.5135 55.2508C52.0574 55.3468 52.5761 54.9838 52.6721 54.4399C52.7681 53.896 52.405 53.3773 51.8612 53.2813L51.5135 55.2508ZM57.8709 53.9665C57.3194 53.9371 56.8485 54.3604 56.8191 54.9119C56.7897 55.4634 57.213 55.9343 57.7645 55.9637L57.8709 53.9665ZM64.0607 55.9338C64.612 55.9001 65.0315 55.4258 64.9977 54.8745C64.9639 54.3233 64.4896 53.9038 63.9384 53.9376L64.0607 55.9338ZM69.9714 53.2451C69.4267 53.3361 69.0588 53.8515 69.1498 54.3962C69.2408 54.9409 69.7561 55.3088 70.3009 55.2178L69.9714 53.2451ZM76.4464 53.8883C76.9804 53.747 77.2986 53.1997 77.1573 52.6658C77.016 52.1319 76.4686 51.8136 75.9347 51.9549L76.4464 53.8883ZM81.743 50.1553C81.2225 50.3396 80.9499 50.9111 81.1343 51.4317C81.3186 51.9523 81.8901 52.2249 82.4107 52.0405L81.743 50.1553ZM88.2619 49.706C88.7651 49.4785 88.9887 48.8861 88.7613 48.3828C88.5338 47.8796 87.9414 47.656 87.4381 47.8835L88.2619 49.706ZM92.4892 45.2096C92.0228 45.5053 91.8844 46.1232 92.1802 46.5896C92.476 47.056 93.0938 47.1944 93.5602 46.8986L92.4892 45.2096ZM98.2504 42.9286C98.5976 42.4991 98.5308 41.8695 98.1013 41.5223C97.6717 41.1752 97.0421 41.2419 96.6949 41.6715L98.2504 42.9286ZM98.1222 37.0759C98.2277 37.618 98.7527 37.9719 99.2948 37.8664C99.837 37.7608 100.191 37.2358 100.085 36.6937L98.1222 37.0759ZM96.6448 31.2753C96.2353 30.9047 95.6029 30.9362 95.2323 31.3457C94.8617 31.7552 94.8933 32.3876 95.3028 32.7582L96.6448 31.2753ZM90.6683 29.5744C91.1527 29.8397 91.7604 29.6619 92.0256 29.1775C92.2908 28.6931 92.1131 28.0854 91.6287 27.8201L90.6683 29.5744ZM86.137 25.2734C85.6236 25.0698 85.0423 25.3209 84.8387 25.8342C84.635 26.3476 84.8861 26.9289 85.3995 27.1325L86.137 25.2734ZM79.9202 25.2256C80.4484 25.387 81.0074 25.0897 81.1688 24.5615C81.3302 24.0333 81.0329 23.4743 80.5047 23.3129L79.9202 25.2256ZM74.7638 21.7595C74.2266 21.6313 73.6873 21.963 73.5592 22.5002C73.431 23.0374 73.7627 23.5768 74.2999 23.7049L74.7638 21.7595ZM68.5829 22.5047C69.1262 22.604 69.6471 22.2441 69.7464 21.7009C69.8458 21.1576 69.4859 20.6366 68.9426 20.5373L68.5829 22.5047ZM63.0684 19.6125C62.5209 19.5399 62.0182 19.9248 61.9456 20.4723C61.873 21.0198 62.2579 21.5225 62.8054 21.5951L63.0684 19.6125ZM56.9893 20.9647C57.5396 21.011 58.0233 20.6025 58.0697 20.0521C58.116 19.5018 57.7074 19.0181 57.1571 18.9718L56.9893 20.9647ZM51.2203 18.6182C50.6683 18.5992 50.2055 19.0312 50.1864 19.5832C50.1674 20.1352 50.5994 20.598 51.1514 20.6171L51.2203 18.6182ZM45.3086 20.5704C45.8607 20.5596 46.2996 20.1033 46.2889 19.5511C46.2781 18.9989 45.8217 18.56 45.2696 18.5708L45.3086 20.5704ZM39.3202 18.8664C38.7697 18.9113 38.3599 19.394 38.4049 19.9444C38.4498 20.4949 38.9325 20.9047 39.4829 20.8598L39.3202 18.8664ZM33.7093 21.5418C34.2548 21.4557 34.6273 20.9437 34.5412 20.3981C34.4551 19.8526 33.943 19.4801 33.3975 19.5662L33.7093 21.5418ZM27.5491 20.7672C27.0144 20.9055 26.693 21.451 26.8313 21.9857C26.9696 22.5204 27.5151 22.8418 28.0498 22.7035L27.5491 20.7672ZM22.5587 24.4998C23.07 24.2911 23.3154 23.7074 23.1067 23.1961C22.898 22.6848 22.3143 22.4394 21.8029 22.6481L22.5587 24.4998ZM16.4035 25.4605C15.9435 25.7662 15.8183 26.3869 16.124 26.8469C16.4296 27.3069 17.0503 27.432 17.5103 27.1264L16.4035 25.4605ZM13.3612 30.8123C13.7102 30.3842 13.6461 29.7543 13.218 29.4053C12.7899 29.0564 12.16 29.1205 11.8111 29.5486L13.3612 30.8123ZM8.87056 35.047C8.71175 35.5759 9.01183 36.1335 9.54079 36.2923C10.0697 36.4511 10.6273 36.151 10.7861 35.622L8.87056 35.047ZM10.2103 41.0748C10.1755 40.5237 9.7005 40.105 9.14931 40.1398C8.59812 40.1745 8.17947 40.6495 8.21424 41.2007L10.2103 41.0748ZM9.3751 47.164C9.54069 47.6909 10.102 47.9838 10.6289 47.8182C11.1558 47.6526 11.4487 47.0913 11.2831 46.5644L9.3751 47.164ZM13.4457 51.8495C13.2 51.3549 12.5999 51.1531 12.1052 51.3988C11.6106 51.6444 11.4088 52.2446 11.6545 52.7392L13.4457 51.8495ZM14.7538 58.1616C15.053 58.6258 15.6718 58.7596 16.1361 58.4604C16.6003 58.1612 16.7341 57.5424 16.4349 57.0781L14.7538 58.1616ZM19.942 61.9534C19.5972 61.522 18.9679 61.4518 18.5365 61.7967C18.1051 62.1415 18.035 62.7708 18.3798 63.2022L19.942 61.9534ZM22.4922 67.8532C22.8778 68.2486 23.5109 68.2565 23.9063 67.8709C24.3017 67.4854 24.3096 66.8522 23.924 66.4568L22.4922 67.8532ZM28.3235 70.5637C27.903 70.2057 27.2718 70.2564 26.9139 70.677C26.5559 71.0975 26.6066 71.7287 27.0272 72.0866L28.3235 70.5637ZM31.9149 75.8938C32.3645 76.2145 32.989 76.11 33.3097 75.6604C33.6304 75.2107 33.5259 74.5863 33.0762 74.2655L31.9149 75.8938ZM38.1229 77.5718C37.6497 77.2871 37.0353 77.4399 36.7505 77.9131C36.4657 78.3863 36.6185 79.0008 37.0917 79.2855L38.1229 77.5718ZM42.5005 82.2824C42.9925 82.5332 43.5947 82.3377 43.8456 81.8457C44.0964 81.3537 43.9009 80.7514 43.4089 80.5006L42.5005 82.2824ZM48.8863 83.0751C48.3794 82.8558 47.7907 83.0888 47.5714 83.5957C47.352 84.1025 47.5851 84.6912 48.0919 84.9106L48.8863 83.0751ZM53.8253 87.1986C54.3437 87.389 54.9183 87.1231 55.1087 86.6047C55.2991 86.0863 55.0332 85.5117 54.5148 85.3212L53.8253 87.1986ZM60.2613 87.2651C59.7339 87.1012 59.1735 87.3959 59.0096 87.9233C58.8457 88.4507 59.1404 89.0111 59.6678 89.175L60.2613 87.2651ZM65.5895 90.8658C66.1238 91.0055 66.6702 90.6855 66.8099 90.1512C66.9496 89.6169 66.6297 89.0705 66.0954 88.9308L65.5895 90.8658ZM72.0004 90.3432C71.4607 90.2257 70.928 90.5678 70.8104 91.1074C70.6928 91.6471 71.035 92.1798 71.5746 92.2974L72.0004 90.3432ZM77.6086 93.4925C78.1522 93.5898 78.6718 93.2279 78.7691 92.6843C78.8664 92.1406 78.5046 91.621 77.9609 91.5237L77.6086 93.4925ZM83.9639 92.491C83.4172 92.4123 82.9103 92.7917 82.8316 93.3383C82.753 93.885 83.1324 94.3919 83.679 94.4706L83.9639 92.491ZM89.7761 95.2489C90.3249 95.3104 90.8197 94.9153 90.8811 94.3664C90.9426 93.8175 90.5474 93.3228 89.9986 93.2614L89.7761 95.2489ZM96.0566 93.8494C95.5062 93.8039 95.0231 94.2133 94.9776 94.7637C94.9322 95.3141 95.3415 95.7971 95.8919 95.8426L96.0566 93.8494ZM102.02 96.2645C102.572 96.295 103.044 95.8728 103.074 95.3213C103.105 94.7699 102.682 94.2981 102.131 94.2675L102.02 96.2645ZM108.216 94.5266C107.664 94.5101 107.203 94.9441 107.187 95.4962C107.17 96.0482 107.604 96.5092 108.156 96.5257L108.216 94.5266ZM114.295 96.6358C114.848 96.6391 115.298 96.1941 115.301 95.6418C115.305 95.0896 114.86 94.6391 114.307 94.6358L114.295 96.6358ZM120.4 94.6028C119.848 94.612 119.408 95.0671 119.417 95.6193C119.427 96.1715 119.882 96.6117 120.434 96.6025L120.4 94.6028ZM126.569 96.4322C127.121 96.4109 127.551 95.9463 127.529 95.3944C127.508 94.8425 127.043 94.4124 126.492 94.4337L126.569 96.4322ZM132.577 94.1337C132.025 94.1667 131.605 94.6404 131.638 95.1917C131.671 95.743 132.145 96.1631 132.696 96.1301L132.577 94.1337ZM138.813 95.6996C139.363 95.6551 139.773 95.1728 139.729 94.6223C139.684 94.0718 139.202 93.6616 138.651 93.7061L138.813 95.6996ZM144.716 93.1526C144.167 93.2085 143.767 93.6992 143.823 94.2486C143.878 94.7981 144.369 95.1982 144.919 95.1423L144.716 93.1526ZM151.029 94.4559C151.577 94.3884 151.966 93.8894 151.899 93.3412C151.832 92.7931 151.333 92.4034 150.784 92.4708L151.029 94.4559ZM156.831 91.6603C156.284 91.7397 155.906 92.2471 155.985 92.7936C156.064 93.3402 156.572 93.7189 157.118 93.6395L156.831 91.6603ZM163.172 92.6889C163.717 92.5968 164.084 92.0807 163.992 91.5362C163.899 90.9916 163.383 90.6248 162.839 90.7169L163.172 92.6889ZM168.836 89.6238C168.294 89.7301 167.941 90.2556 168.047 90.7976C168.153 91.3396 168.679 91.6927 169.221 91.5864L168.836 89.6238ZM0.037987 1.273C0.312481 2.24027 0.61648 3.23656 0.95018 4.25702L2.85112 3.63539C2.5254 2.63932 2.22912 1.66824 1.96201 0.726996L0.037987 1.273ZM3.10383 10.1264C3.8622 11.9931 4.70877 13.9054 5.64479 15.8388L7.44494 14.9674C6.52811 13.0735 5.6991 11.2009 4.95676 9.37365L3.10383 10.1264ZM8.549 21.3741C9.5609 23.1588 10.6489 24.9427 11.8141 26.7071L13.483 25.605C12.3439 23.88 11.2794 22.1348 10.2888 20.3877L8.549 21.3741ZM15.4484 31.8018C16.7143 33.4443 18.0528 35.0525 19.4649 36.6096L20.9464 35.266C19.5721 33.7506 18.2677 32.1835 17.0325 30.5809L15.4484 31.8018ZM23.8769 41.0683C25.4091 42.4834 27.0138 43.8334 28.6918 45.1023L29.8981 43.507C28.2752 42.2798 26.7206 40.9721 25.2338 39.599L23.8769 41.0683ZM33.9027 48.6231C35.6912 49.6937 37.5509 50.6709 39.4827 51.5394L40.3028 49.7153C38.445 48.88 36.6543 47.9393 34.9299 46.9071L33.9027 48.6231ZM45.3781 53.768C47.3577 54.3796 49.4027 54.8782 51.5135 55.2508L51.8612 53.2813C49.8336 52.9233 47.8696 52.4445 45.9684 51.8571L45.3781 53.768ZM57.7645 55.9637C59.8089 56.0726 61.9076 56.0658 64.0607 55.9338L63.9384 53.9376C61.8604 54.065 59.8381 54.0713 57.8709 53.9665L57.7645 55.9637ZM70.3009 55.2178C72.3065 54.8829 74.355 54.4419 76.4464 53.8883L75.9347 51.9549C73.9016 52.493 71.914 52.9207 69.9714 53.2451L70.3009 55.2178ZM82.4107 52.0405C83.388 51.6944 84.374 51.3242 85.3688 50.9295L84.6312 49.0705C83.6591 49.4562 82.6964 49.8176 81.743 50.1553L82.4107 52.0405ZM85.3688 50.9295C86.391 50.5239 87.3549 50.1159 88.2619 49.706L87.4381 47.8835C86.5618 48.2796 85.6268 48.6754 84.6312 49.0705L85.3688 50.9295ZM93.5602 46.8986C95.5973 45.6069 97.1554 44.2835 98.2504 42.9286L96.6949 41.6715C95.7764 42.8079 94.4044 43.9951 92.4892 45.2096L93.5602 46.8986ZM100.085 36.6937C99.7002 34.7153 98.4422 32.9019 96.6448 31.2753L95.3028 32.7582C96.9215 34.2231 97.85 35.6776 98.1222 37.0759L100.085 36.6937ZM91.6287 27.8201C89.9803 26.9177 88.1362 26.0665 86.137 25.2734L85.3995 27.1325C87.3366 27.9009 89.1043 28.7182 90.6683 29.5744L91.6287 27.8201ZM80.5047 23.3129C78.669 22.752 76.7485 22.2327 74.7638 21.7595L74.2999 23.7049C76.247 24.1692 78.1271 24.6777 79.9202 25.2256L80.5047 23.3129ZM68.9426 20.5373C67.0182 20.1855 65.0549 19.876 63.0684 19.6125L62.8054 21.5951C64.7599 21.8544 66.6911 22.1588 68.5829 22.5047L68.9426 20.5373ZM57.1571 18.9718C55.181 18.8054 53.1971 18.6864 51.2203 18.6182L51.1514 20.6171C53.0942 20.684 55.0452 20.801 56.9893 20.9647L57.1571 18.9718ZM45.2696 18.5708C43.2581 18.6101 41.2694 18.7073 39.3202 18.8664L39.4829 20.8598C41.3883 20.7042 43.3356 20.6089 45.3086 20.5704L45.2696 18.5708ZM33.3975 19.5662C31.3753 19.8854 29.4183 20.2838 27.5491 20.7672L28.0498 22.7035C29.85 22.2379 31.7433 21.852 33.7093 21.5418L33.3975 19.5662ZM21.8029 22.6481C19.8388 23.4498 18.025 24.3832 16.4035 25.4605L17.5103 27.1264C19.0041 26.1339 20.6968 25.2597 22.5587 24.4998L21.8029 22.6481ZM11.8111 29.5486C10.4863 31.1735 9.48411 33.0033 8.87056 35.047L10.7861 35.622C11.3197 33.8445 12.1922 32.2463 13.3612 30.8123L11.8111 29.5486ZM8.21424 41.2007C8.33225 43.0719 8.71338 45.0585 9.3751 47.164L11.2831 46.5644C10.6632 44.5919 10.3169 42.7648 10.2103 41.0748L8.21424 41.2007ZM11.6545 52.7392C12.1015 53.6392 12.5938 54.5586 13.1326 55.4977L14.8674 54.5023C14.3472 53.5958 13.8739 52.7116 13.4457 51.8495L11.6545 52.7392ZM13.1326 55.4977C13.6526 56.4038 14.1932 57.2917 14.7538 58.1616L16.4349 57.0781C15.8928 56.237 15.3701 55.3785 14.8674 54.5023L13.1326 55.4977ZM18.3798 63.2022C19.6761 64.8238 21.0488 66.3732 22.4922 67.8532L23.924 66.4568C22.5253 65.0226 21.1962 63.5223 19.942 61.9534L18.3798 63.2022ZM27.0272 72.0866C28.5947 73.4209 30.2258 74.689 31.9149 75.8938L33.0762 74.2655C31.4318 73.0926 29.8458 71.8594 28.3235 70.5637L27.0272 72.0866ZM37.0917 79.2855C38.8465 80.3415 40.6512 81.3396 42.5005 82.2824L43.4089 80.5006C41.5994 79.5781 39.8358 78.6025 38.1229 77.5718L37.0917 79.2855ZM48.0919 84.9106C49.9673 85.7223 51.88 86.4842 53.8253 87.1986L54.5148 85.3212C52.6031 84.6192 50.7255 83.8711 48.8863 83.0751L48.0919 84.9106ZM59.6678 89.175C61.6165 89.7806 63.5919 90.3435 65.5895 90.8658L66.0954 88.9308C64.1258 88.4159 62.1797 87.8613 60.2613 87.2651L59.6678 89.175ZM71.5746 92.2974C73.5698 92.7321 75.5825 93.1298 77.6086 93.4925L77.9609 91.5237C75.9583 91.1653 73.9702 90.7724 72.0004 90.3432L71.5746 92.2974ZM83.679 94.4706C85.7033 94.7618 87.737 95.0207 89.7761 95.2489L89.9986 93.2614C87.9795 93.0353 85.9666 92.7791 83.9639 92.491L83.679 94.4706ZM95.8919 95.8426C97.9343 96.0113 99.9783 96.1513 102.02 96.2645L102.131 94.2675C100.106 94.1553 98.0803 94.0165 96.0566 93.8494L95.8919 95.8426ZM108.156 96.5257C110.21 96.5874 112.257 96.6234 114.295 96.6358L114.307 94.6358C112.285 94.6236 110.253 94.5878 108.216 94.5266L108.156 96.5257ZM120.434 96.6025C122.495 96.568 124.541 96.5106 126.569 96.4322L126.492 94.4337C124.478 94.5115 122.446 94.5685 120.4 94.6028L120.434 96.6025ZM132.696 96.1301C134.761 96.0064 136.802 95.8621 138.813 95.6996L138.651 93.7061C136.654 93.8675 134.628 94.0108 132.577 94.1337L132.696 96.1301ZM144.919 95.1423C146.996 94.9309 149.035 94.7012 151.029 94.4559L150.784 92.4708C148.805 92.7145 146.78 92.9426 144.716 93.1526L144.919 95.1423ZM157.118 93.6395C159.2 93.337 161.221 93.019 163.172 92.6889L162.839 90.7169C160.903 91.0444 158.898 91.36 156.831 91.6603L157.118 93.6395Z" fill="#7E37F9"/>
</svg>
