<svg width="763" height="1057" viewBox="0 0 763 1057" fill="none" xmlns="http://www.w3.org/2000/svg">
<g clip-path="url(#clip0_1701_745)">
<g opacity="0.05">
<path d="M457.75 12.1361C457.779 12.058 457.791 11.9752 457.788 11.8923C457.784 11.8094 457.764 11.728 457.728 11.6529C457.693 11.5777 457.644 11.5102 457.582 11.4543C457.521 11.3983 457.449 11.3551 457.371 11.3269C457.293 11.2981 457.21 11.2851 457.127 11.2887C457.044 11.2922 456.962 11.3122 456.887 11.3475C456.812 11.3827 456.744 11.4326 456.689 11.4942C456.633 11.5558 456.59 11.6278 456.562 11.7062C456.533 11.7842 456.52 11.8671 456.524 11.9501C456.527 12.0332 456.547 12.1147 456.583 12.19C456.618 12.2652 456.668 12.3327 456.729 12.3886C456.791 12.4444 456.863 12.4875 456.941 12.5153C457.01 12.5401 457.083 12.553 457.156 12.5532C457.286 12.553 457.413 12.5129 457.519 12.4383C457.625 12.3637 457.706 12.2581 457.75 12.1361Z" fill="url(#paint0_linear_1701_745)"/>
</g>
<g opacity="0.07">
<path d="M456.502 30.7772C456.631 30.7772 456.757 30.7376 456.863 30.6637C456.969 30.5898 457.05 30.4852 457.095 30.364C457.153 30.2067 457.146 30.0327 457.076 29.8804C457.006 29.7281 456.878 29.6099 456.721 29.5517C422.678 16.9926 387.704 7.1159 352.12 0.0119945C351.955 -0.0204656 351.785 0.0135762 351.645 0.106608C351.506 0.199641 351.409 0.344084 351.376 0.50837C351.343 0.672813 351.377 0.84357 351.47 0.983034C351.563 1.1225 351.708 1.21926 351.872 1.25211C387.391 8.3428 422.301 18.2016 456.283 30.738C456.353 30.7639 456.427 30.7771 456.502 30.7772Z" fill="url(#paint1_linear_1701_745)"/>
</g>
<g opacity="0.1">
<path d="M456.03 49.1875C456.159 49.1874 456.284 49.1484 456.39 49.0756C456.495 49.0027 456.576 48.8995 456.622 48.7796C456.681 48.6228 456.676 48.4489 456.607 48.2959C456.539 48.143 456.412 48.0236 456.255 47.964C445.876 44.0214 435.241 40.2772 424.648 36.8353C424.488 36.7839 424.315 36.7977 424.166 36.8738C424.016 36.9499 423.903 37.0821 423.851 37.2413C423.799 37.4008 423.813 37.5743 423.889 37.7237C423.965 37.8731 424.098 37.9861 424.257 38.038C434.831 41.4733 445.446 45.2107 455.806 49.1461C455.878 49.1734 455.954 49.1874 456.03 49.1875Z" fill="url(#paint2_linear_1701_745)"/>
</g>
<g opacity="0.12">
<path d="M514.313 93.9358C514.43 93.9359 514.545 93.9036 514.644 93.8427C514.744 93.7817 514.824 93.6945 514.877 93.5905C514.953 93.4411 514.967 93.2676 514.915 93.1081C514.863 92.9487 514.75 92.8163 514.601 92.7401C495.195 82.8525 475.131 73.8394 454.968 65.9507C454.891 65.9204 454.808 65.9057 454.725 65.9074C454.642 65.909 454.56 65.927 454.484 65.9603C454.408 65.9935 454.339 66.0415 454.282 66.1014C454.224 66.1612 454.179 66.2319 454.149 66.3092C454.088 66.4653 454.091 66.6393 454.158 66.7929C454.226 66.9465 454.351 67.0672 454.507 67.1282C474.632 75.0017 494.658 83.9978 514.027 93.8666C514.116 93.9121 514.214 93.9358 514.313 93.9358Z" fill="url(#paint3_linear_1701_745)"/>
</g>
<g opacity="0.15">
<path d="M592.013 161.753C592.113 161.753 592.212 161.729 592.301 161.684C592.39 161.639 592.467 161.573 592.525 161.492C592.574 161.425 592.609 161.349 592.629 161.268C592.648 161.188 592.651 161.104 592.639 161.022C592.626 160.94 592.597 160.861 592.553 160.79C592.51 160.72 592.453 160.658 592.386 160.609C549.796 129.637 503.561 104.016 454.72 84.3249C454.564 84.2624 454.39 84.2641 454.236 84.3299C454.082 84.3956 453.96 84.5199 453.897 84.6754C453.835 84.8309 453.836 85.005 453.902 85.1592C453.968 85.3135 454.092 85.4353 454.248 85.4979C502.993 105.15 549.137 130.72 591.642 161.632C591.75 161.711 591.88 161.753 592.013 161.753Z" fill="url(#paint4_linear_1701_745)"/>
</g>
<g opacity="0.17">
<path d="M656.09 239.13C656.173 239.13 656.255 239.113 656.332 239.082C656.409 239.05 656.479 239.003 656.537 238.944C656.596 238.886 656.642 238.816 656.674 238.739C656.706 238.663 656.722 238.58 656.722 238.497C656.722 238.414 656.706 238.332 656.674 238.255C656.642 238.179 656.596 238.109 656.537 238.05C598.132 179.647 530.147 134.167 454.472 102.872C454.317 102.808 454.143 102.808 453.988 102.872C453.833 102.936 453.71 103.059 453.646 103.214C453.582 103.369 453.582 103.543 453.646 103.698C453.71 103.853 453.833 103.976 453.988 104.04C529.51 135.271 597.356 180.659 655.643 238.944C655.702 239.003 655.771 239.05 655.848 239.082C655.925 239.113 656.007 239.13 656.09 239.13Z" fill="url(#paint5_linear_1701_745)"/>
</g>
<g opacity="0.19">
<path d="M705.509 323.515C705.643 323.515 705.773 323.472 705.88 323.394C705.948 323.345 706.004 323.283 706.048 323.213C706.091 323.142 706.12 323.063 706.133 322.981C706.146 322.899 706.143 322.815 706.123 322.735C706.104 322.654 706.069 322.578 706.02 322.511C673.505 277.696 635.007 237.544 591.6 203.171C549.63 169.996 503.428 142.559 454.212 121.586C454.058 121.52 453.884 121.518 453.728 121.581C453.573 121.643 453.448 121.765 453.383 121.919C453.317 122.074 453.315 122.248 453.378 122.403C453.44 122.559 453.562 122.683 453.716 122.749C502.829 143.678 548.934 171.057 590.816 204.163C634.132 238.464 672.549 278.533 704.997 323.254C705.056 323.335 705.133 323.401 705.222 323.446C705.311 323.491 705.409 323.515 705.509 323.515Z" fill="url(#paint6_linear_1701_745)"/>
</g>
<g opacity="0.22">
<path d="M739.699 412.279C739.799 412.279 739.898 412.256 739.987 412.21C740.136 412.134 740.249 412.002 740.301 411.842C740.353 411.683 740.339 411.509 740.263 411.36C708.949 349.905 667.746 295.093 617.798 248.446C569.541 203.375 514.013 166.785 453.56 140.222C453.484 140.189 453.402 140.171 453.319 140.169C453.236 140.167 453.153 140.181 453.076 140.211C452.998 140.241 452.927 140.286 452.867 140.344C452.807 140.401 452.759 140.47 452.726 140.546C452.658 140.699 452.655 140.873 452.715 141.03C452.776 141.186 452.896 141.312 453.05 141.379C513.373 167.885 568.782 204.396 616.935 249.37C666.775 295.916 707.89 350.611 739.136 411.934C739.189 412.038 739.27 412.125 739.37 412.186C739.469 412.247 739.583 412.28 739.699 412.279Z" fill="url(#paint7_linear_1701_745)"/>
</g>
<g opacity="0.24">
<path d="M758.545 502.794C758.611 502.794 758.677 502.784 758.74 502.763C758.9 502.712 759.032 502.598 759.108 502.449C759.184 502.3 759.198 502.126 759.146 501.967C746.56 463.193 729.883 425.869 709.397 390.625C689.507 356.476 666.106 324.496 639.575 295.206C613.464 266.412 584.484 240.357 553.085 217.445C521.878 194.69 488.458 175.136 453.332 159.078C453.257 159.043 453.175 159.024 453.092 159.021C453.009 159.018 452.926 159.032 452.849 159.061C452.771 159.09 452.699 159.134 452.639 159.19C452.578 159.247 452.529 159.315 452.494 159.39C452.425 159.543 452.418 159.717 452.477 159.874C452.535 160.031 452.654 160.158 452.807 160.228C487.855 176.25 521.201 195.762 552.339 218.467C583.669 241.327 612.585 267.325 638.638 296.055C665.11 325.28 688.458 357.188 708.304 391.261C728.745 426.428 745.385 463.669 757.943 502.357C757.985 502.484 758.065 502.595 758.173 502.673C758.281 502.752 758.411 502.794 758.545 502.794Z" fill="url(#paint8_linear_1701_745)"/>
</g>
<g opacity="0.26">
<path d="M762.365 592.507C762.398 592.507 762.432 592.504 762.465 592.499C762.547 592.486 762.625 592.457 762.696 592.414C762.767 592.37 762.828 592.313 762.877 592.246C762.926 592.179 762.961 592.103 762.98 592.022C763 591.941 763.003 591.858 762.99 591.776C755.752 545.93 742.798 501.171 724.431 458.546C706.628 417.334 683.852 378.453 656.609 342.77C602.775 272.323 532.881 215.765 452.754 177.808C452.679 177.773 452.598 177.752 452.515 177.748C452.432 177.744 452.349 177.756 452.271 177.784C452.192 177.812 452.12 177.855 452.059 177.911C451.997 177.967 451.947 178.034 451.912 178.109C451.84 178.261 451.832 178.434 451.888 178.592C451.944 178.75 452.061 178.879 452.213 178.951C532.158 216.821 601.893 273.251 655.604 343.537C682.784 379.138 705.508 417.929 723.27 459.047C741.595 501.575 754.52 546.232 761.741 591.974C761.765 592.122 761.84 592.257 761.955 592.355C762.069 592.453 762.214 592.507 762.365 592.507Z" fill="url(#paint9_linear_1701_745)"/>
</g>
<g opacity="0.29">
<path d="M751.895 679.009C752.063 679.009 752.224 678.943 752.342 678.824C752.461 678.706 752.527 678.545 752.527 678.377C752.527 576.247 723.711 476.917 669.193 391.127C616.221 307.704 541.289 240.486 452.622 196.85C452.472 196.776 452.298 196.765 452.14 196.819C451.981 196.873 451.85 196.988 451.776 197.138C451.702 197.288 451.691 197.462 451.745 197.621C451.799 197.78 451.914 197.91 452.064 197.984C540.523 241.518 615.278 308.578 668.126 391.805C722.515 477.392 751.263 576.487 751.263 678.377C751.263 678.545 751.33 678.706 751.448 678.824C751.567 678.943 751.727 679.009 751.895 679.009Z" fill="url(#paint10_linear_1701_745)"/>
</g>
<g opacity="0.31">
<path d="M728.233 760.106C728.383 760.105 728.528 760.052 728.643 759.954C728.757 759.856 728.833 759.721 728.856 759.572C733.145 732.506 735.307 705.145 735.323 677.741C735.282 581.676 708.486 487.522 657.939 405.83C607.783 324.625 536.568 258.926 451.994 215.835C451.844 215.759 451.671 215.745 451.511 215.797C451.352 215.849 451.219 215.962 451.143 216.111C451.106 216.185 451.083 216.266 451.076 216.348C451.07 216.431 451.08 216.514 451.105 216.593C451.131 216.672 451.172 216.745 451.226 216.809C451.28 216.872 451.345 216.924 451.419 216.961C535.788 259.947 606.829 325.487 656.863 406.495C707.287 487.986 734.017 581.911 734.058 677.741C734.043 705.079 731.886 732.373 727.607 759.375C727.594 759.457 727.598 759.54 727.617 759.621C727.636 759.702 727.671 759.778 727.72 759.845C727.769 759.912 727.831 759.969 727.901 760.012C727.972 760.056 728.051 760.085 728.133 760.098C728.166 760.103 728.199 760.106 728.233 760.106Z" fill="url(#paint11_linear_1701_745)"/>
</g>
<g opacity="0.33">
<path d="M692.806 833.865C692.94 833.865 693.07 833.823 693.178 833.744C693.286 833.666 693.366 833.555 693.407 833.428C709.741 783.33 718.074 730.969 718.101 678.276C718.101 587.79 693.409 498.688 646.695 420.604C599.758 342.025 532.164 277.828 451.272 235C451.123 234.922 450.95 234.905 450.79 234.955C450.63 235.004 450.496 235.115 450.417 235.263C450.339 235.412 450.322 235.585 450.372 235.745C450.421 235.905 450.532 236.039 450.681 236.118C531.369 278.838 598.792 342.873 645.61 421.253C692.207 499.141 716.837 588.018 716.837 678.276C716.81 730.837 708.497 783.065 692.205 833.037C692.153 833.197 692.167 833.37 692.243 833.52C692.319 833.669 692.451 833.782 692.611 833.834C692.674 833.855 692.74 833.865 692.806 833.865Z" fill="url(#paint12_linear_1701_745)"/>
</g>
<g opacity="0.36">
<path d="M647.314 898.669C647.431 898.669 647.545 898.637 647.645 898.576C647.744 898.515 647.825 898.428 647.878 898.324C665.443 863.888 678.843 827.482 687.794 789.876C696.424 753.469 700.785 716.182 700.787 678.766C700.738 593.253 678.159 509.261 635.325 435.248C591.367 359.247 527.481 296.698 450.566 254.356C450.419 254.275 450.246 254.256 450.085 254.302C449.924 254.349 449.788 254.457 449.707 254.604C449.667 254.677 449.642 254.756 449.633 254.839C449.623 254.922 449.63 255.005 449.653 255.085C449.676 255.165 449.715 255.239 449.767 255.304C449.819 255.369 449.883 255.423 449.955 255.463C526.669 297.694 590.388 360.079 634.231 435.881C676.954 509.702 699.473 593.475 699.523 678.766C699.52 716.083 695.171 753.273 686.564 789.583C677.636 827.092 664.271 863.404 646.751 897.75C646.713 897.824 646.691 897.905 646.684 897.988C646.678 898.07 646.688 898.154 646.713 898.233C646.739 898.312 646.78 898.385 646.834 898.448C646.888 898.511 646.954 898.563 647.028 898.601C647.116 898.646 647.214 898.669 647.314 898.669Z" fill="url(#paint13_linear_1701_745)"/>
</g>
<g opacity="0.38">
<path d="M593.663 953.248C593.763 953.249 593.862 953.225 593.951 953.18C594.04 953.134 594.117 953.069 594.175 952.988C652.235 873.345 683.492 777.318 683.438 678.761C683.43 642.666 679.269 606.692 671.035 571.549C662.77 536.291 650.447 502.109 634.311 469.689C617.913 436.772 597.666 405.918 573.994 377.775C549.503 348.712 521.571 322.733 490.813 300.408C477.631 290.832 463.964 281.941 449.867 273.77C449.795 273.729 449.716 273.702 449.633 273.691C449.551 273.68 449.467 273.685 449.387 273.706C449.307 273.728 449.232 273.765 449.166 273.815C449.1 273.866 449.044 273.929 449.003 274C448.919 274.146 448.896 274.318 448.939 274.48C448.982 274.642 449.088 274.78 449.233 274.864C463.292 283.013 476.923 291.88 490.07 301.431C520.745 323.696 548.601 349.605 573.026 378.589C596.634 406.656 616.826 437.425 633.179 470.252C665.407 535.034 682.178 606.405 682.173 678.761C682.228 777.051 651.055 872.818 593.152 952.245C593.054 952.38 593.013 952.549 593.039 952.715C593.066 952.881 593.156 953.029 593.292 953.128C593.4 953.206 593.53 953.248 593.663 953.248Z" fill="url(#paint14_linear_1701_745)"/>
</g>
<g opacity="0.41">
<path d="M533.896 996.7C533.979 996.7 534.061 996.684 534.138 996.652C534.215 996.62 534.285 996.574 534.343 996.515C577.293 953.567 610.546 903.491 633.179 847.68C677.107 739.085 677.107 617.669 633.179 509.074C610.546 453.262 577.293 403.187 534.343 360.239C508.638 334.512 479.921 311.981 448.815 293.137C448.671 293.05 448.499 293.024 448.336 293.064C448.174 293.104 448.033 293.207 447.946 293.351C447.904 293.422 447.875 293.501 447.862 293.583C447.85 293.665 447.854 293.749 447.874 293.829C447.893 293.91 447.929 293.986 447.978 294.053C448.027 294.12 448.089 294.176 448.16 294.219C479.179 313.01 507.816 335.478 533.449 361.133C576.278 403.961 609.438 453.895 632.008 509.549C675.811 617.839 675.811 738.914 632.008 847.205C609.438 902.859 576.278 952.793 533.449 995.621C533.39 995.68 533.344 995.749 533.312 995.826C533.28 995.903 533.264 995.985 533.264 996.068C533.264 996.151 533.28 996.233 533.312 996.31C533.344 996.386 533.39 996.456 533.449 996.515C533.508 996.574 533.578 996.62 533.654 996.652C533.731 996.684 533.813 996.7 533.896 996.7Z" fill="url(#paint15_linear_1701_745)"/>
</g>
<g opacity="0.43">
<path d="M470.126 1028.51C470.26 1028.51 470.39 1028.46 470.498 1028.39C498.98 1007.71 524.846 983.655 547.525 956.743C569.446 930.681 588.195 902.11 603.38 871.629C633.305 811.477 648.877 745.206 648.873 678.022C648.767 605.202 630.312 533.582 595.211 469.779C560.11 405.975 509.497 352.046 448.045 312.972C447.975 312.927 447.897 312.897 447.815 312.883C447.733 312.869 447.649 312.871 447.568 312.889C447.487 312.907 447.411 312.941 447.343 312.989C447.275 313.036 447.217 313.097 447.173 313.167C447.128 313.237 447.098 313.316 447.084 313.397C447.069 313.479 447.071 313.563 447.089 313.644C447.108 313.725 447.142 313.802 447.189 313.869C447.237 313.937 447.298 313.995 447.368 314.04C493.306 343.17 533.29 380.765 565.19 424.824C618.798 498.359 647.659 587.022 647.608 678.022C647.612 745.011 632.086 811.088 602.248 871.065C587.108 901.457 568.414 929.944 546.557 955.929C523.944 982.763 498.154 1006.75 469.754 1027.36C469.619 1027.46 469.528 1027.61 469.502 1027.78C469.475 1027.94 469.516 1028.11 469.615 1028.25C469.673 1028.33 469.75 1028.39 469.839 1028.44C469.928 1028.48 470.027 1028.51 470.126 1028.51Z" fill="url(#paint16_linear_1701_745)"/>
</g>
<g opacity="0.45">
<path d="M404.481 1048.53C404.58 1048.53 404.678 1048.51 404.767 1048.46C474.123 1013.21 532.152 959.146 572.208 892.452C611.084 827.688 631.63 753.578 631.651 678.043C631.649 645.966 627.91 613.998 620.512 582.786C604.408 515.246 571.756 452.772 525.496 400.991C502.25 375.05 475.817 352.152 446.825 332.843C446.686 332.75 446.515 332.717 446.35 332.75C446.186 332.783 446.041 332.879 445.948 333.019C445.855 333.158 445.822 333.329 445.855 333.494C445.888 333.658 445.985 333.803 446.124 333.896C475.027 353.145 501.38 375.973 524.555 401.835C570.674 453.458 603.226 515.743 619.281 583.078C626.657 614.194 630.384 646.064 630.386 678.043C630.366 753.349 609.882 827.234 571.124 891.802C531.189 958.292 473.338 1012.19 404.193 1047.33C404.043 1047.41 403.93 1047.54 403.879 1047.7C403.827 1047.86 403.841 1048.04 403.917 1048.18C403.97 1048.29 404.05 1048.38 404.15 1048.44C404.249 1048.5 404.364 1048.53 404.481 1048.53Z" fill="url(#paint17_linear_1701_745)"/>
</g>
<g opacity="0.48">
<path d="M339.015 1057C339.081 1057 339.147 1056.99 339.21 1056.97C420.122 1030.82 490.479 979.345 539.886 910.142C563.791 876.716 582.398 839.803 595.05 800.706C621.201 719.958 620.827 632.962 593.983 552.443C567.139 471.923 515.235 402.105 445.862 353.201C445.725 353.105 445.555 353.067 445.39 353.095C445.225 353.124 445.077 353.217 444.981 353.354C444.933 353.422 444.899 353.498 444.881 353.579C444.863 353.66 444.86 353.744 444.875 353.826C444.889 353.908 444.919 353.986 444.963 354.056C445.008 354.126 445.065 354.187 445.133 354.235C514.284 402.985 566.022 472.581 592.78 552.844C619.538 633.107 619.912 719.826 593.847 800.316C581.235 839.29 562.687 876.086 538.858 909.406C489.607 978.389 419.475 1029.7 338.82 1055.77C338.676 1055.81 338.555 1055.91 338.476 1056.04C338.397 1056.17 338.367 1056.32 338.39 1056.47C338.414 1056.61 338.49 1056.75 338.604 1056.85C338.719 1056.95 338.864 1057 339.015 1057Z" fill="url(#paint18_linear_1701_745)"/>
</g>
<g opacity="0.5">
<path d="M275.666 1054.49C275.699 1054.49 275.733 1054.49 275.766 1054.48C365.877 1040.35 447.878 994.218 506.742 924.544C564.983 855.744 597.058 768.487 597.058 678.844C597.047 658.738 595.46 638.665 592.314 618.808C576.938 520.886 523.865 432.866 444.439 373.562C444.372 373.512 444.297 373.475 444.216 373.455C444.136 373.434 444.052 373.431 443.97 373.442C443.888 373.454 443.809 373.481 443.737 373.524C443.666 373.566 443.604 373.622 443.554 373.688C443.504 373.755 443.468 373.831 443.447 373.912C443.427 373.992 443.422 374.076 443.434 374.158C443.446 374.24 443.474 374.319 443.516 374.391C443.559 374.462 443.615 374.524 443.681 374.573C522.843 433.68 575.741 521.41 591.065 619.006C594.201 638.798 595.782 658.806 595.793 678.844C595.793 768.188 563.825 855.156 505.777 923.727C447.108 993.169 365.38 1039.15 275.568 1053.23C275.411 1053.26 275.269 1053.34 275.171 1053.47C275.072 1053.59 275.024 1053.75 275.037 1053.91C275.049 1054.07 275.121 1054.21 275.237 1054.32C275.354 1054.43 275.507 1054.49 275.666 1054.49Z" fill="url(#paint19_linear_1701_745)"/>
</g>
<g opacity="0.53">
<path d="M216.194 1041.89C265.27 1041.89 312.879 1032.28 357.697 1013.32C444.837 976.378 514.205 907.011 551.153 819.874C570.11 775.058 579.721 727.451 579.721 678.377C579.732 650.244 576.494 622.204 570.07 594.814C563.826 568.298 554.605 542.573 542.583 518.128C518.871 469.991 484.835 427.675 442.901 394.193C442.77 394.089 442.602 394.04 442.436 394.059C442.269 394.078 442.117 394.162 442.012 394.293C441.96 394.358 441.923 394.432 441.9 394.512C441.877 394.592 441.87 394.675 441.879 394.758C441.888 394.84 441.912 394.92 441.953 394.993C441.993 395.065 442.047 395.129 442.112 395.181C483.901 428.547 517.82 470.716 541.449 518.686C553.43 543.046 562.617 568.681 568.84 595.104C575.241 622.399 578.468 650.342 578.457 678.377C578.457 727.281 568.879 774.722 549.989 819.381C513.169 906.216 444.041 975.342 357.203 1012.16C312.542 1031.05 265.1 1040.63 216.194 1040.63C216.027 1040.63 215.866 1040.69 215.747 1040.81C215.629 1040.93 215.562 1041.09 215.562 1041.26C215.562 1041.43 215.629 1041.59 215.747 1041.71C215.866 1041.83 216.027 1041.89 216.194 1041.89Z" fill="url(#paint20_linear_1701_745)"/>
</g>
<g opacity="0.55">
<path d="M216.618 1024.66C298.128 1024.66 377.469 995.5 440.026 942.546C503.379 889.026 545.325 814.471 558.178 732.54C561.039 714.485 562.481 696.233 562.491 677.953C562.49 627.51 551.403 577.683 530.013 531.998C509.027 487.129 478.705 447.256 441.074 415.043C441.011 414.989 440.938 414.948 440.859 414.922C440.78 414.897 440.697 414.887 440.614 414.893C440.531 414.899 440.45 414.922 440.376 414.96C440.302 414.997 440.237 415.049 440.183 415.113C440.129 415.176 440.088 415.249 440.062 415.328C440.036 415.407 440.026 415.49 440.033 415.573C440.039 415.655 440.062 415.736 440.099 415.81C440.137 415.884 440.189 415.95 440.252 416.004C477.746 448.099 507.958 487.828 528.868 532.534C550.179 578.051 561.225 627.695 561.227 677.953C561.216 696.167 559.779 714.353 556.929 732.343C544.124 813.974 502.331 888.257 439.209 941.582C376.88 994.342 297.829 1023.4 216.618 1023.4C198.404 1023.39 180.218 1021.95 162.227 1019.1C162.062 1019.07 161.892 1019.11 161.757 1019.21C161.621 1019.31 161.53 1019.46 161.504 1019.63C161.478 1019.79 161.518 1019.96 161.617 1020.1C161.716 1020.23 161.864 1020.32 162.03 1020.35C180.085 1023.21 198.337 1024.65 216.618 1024.66Z" fill="url(#paint21_linear_1701_745)"/>
</g>
<g opacity="0.57">
<path d="M216.258 1007.42C250.562 1007.42 284.653 1002.02 317.283 991.439C349.593 980.984 380.097 965.609 407.72 945.855C450.228 915.371 484.871 875.208 508.784 828.686C532.698 782.164 545.196 730.619 545.245 678.311C545.245 586.708 506.534 498.494 439.036 436.289C438.913 436.175 438.75 436.115 438.582 436.122C438.415 436.129 438.257 436.202 438.143 436.325C438.087 436.386 438.043 436.458 438.014 436.536C437.986 436.614 437.973 436.696 437.976 436.779C437.98 436.862 437.999 436.944 438.034 437.019C438.069 437.095 438.118 437.162 438.18 437.219C505.418 499.185 543.981 587.06 543.981 678.311C543.97 747.634 521.985 815.17 481.183 871.215C440.381 927.26 382.863 968.929 316.894 990.236C251.244 1011.53 180.532 1011.46 114.926 990.029C114.847 990.003 114.764 989.993 114.681 990C114.598 990.006 114.517 990.029 114.443 990.066C114.369 990.104 114.303 990.156 114.249 990.219C114.195 990.282 114.154 990.355 114.128 990.435C114.103 990.514 114.093 990.597 114.099 990.68C114.106 990.763 114.129 990.843 114.167 990.917C114.204 990.991 114.256 991.057 114.32 991.111C114.383 991.165 114.456 991.206 114.535 991.232C147.381 1001.94 181.71 1007.4 216.258 1007.42Z" fill="url(#paint22_linear_1701_745)"/>
</g>
<g opacity="0.6">
<path d="M215.944 990.118C272.626 990.103 328.24 974.685 376.839 945.515C426.885 915.458 467.458 871.916 493.909 819.874C505.208 797.721 513.828 774.3 519.587 750.107C531.766 698.384 530.546 644.408 516.04 593.288C501.535 542.168 474.224 495.595 436.694 457.976C436.635 457.918 436.565 457.871 436.488 457.839C436.413 457.807 436.331 457.791 436.247 457.791C436.163 457.791 436.081 457.807 436.005 457.839C435.928 457.871 435.859 457.918 435.801 457.976C435.742 458.035 435.695 458.105 435.663 458.181C435.632 458.258 435.615 458.34 435.615 458.423C435.615 458.506 435.632 458.588 435.663 458.665C435.695 458.742 435.742 458.812 435.801 458.87C473.215 496.312 500.438 542.695 514.887 593.615C529.336 644.535 530.53 698.303 518.356 749.815C512.621 773.91 504.035 797.236 492.781 819.3C466.439 871.131 426.031 914.496 376.188 944.43C327.785 973.483 272.397 988.838 215.944 988.854C191.972 988.852 168.081 986.058 144.755 980.529C120.658 974.794 97.3318 966.208 75.2669 954.954C75.1929 954.916 75.1122 954.893 75.0294 954.887C74.9466 954.88 74.8633 954.89 74.7844 954.916C74.7054 954.942 74.6323 954.983 74.5692 955.037C74.506 955.091 74.4542 955.156 74.4165 955.23C74.3788 955.304 74.3561 955.385 74.3496 955.468C74.3431 955.551 74.353 955.634 74.3787 955.713C74.4044 955.792 74.4453 955.865 74.4993 955.928C74.5532 955.991 74.6191 956.043 74.6931 956.081C96.8474 967.38 120.269 976.001 144.462 981.759C167.884 987.311 191.873 990.116 215.944 990.118Z" fill="url(#paint23_linear_1701_745)"/>
</g>
<g opacity="0.62">
<path d="M215.952 972.792C261.664 972.75 306.75 962.156 347.699 941.837C368.441 931.505 387.884 918.746 405.618 903.83C448.144 867.977 479.719 820.879 496.731 767.923C517.023 704.141 515.027 635.355 491.072 572.856C477.965 538.51 458.483 506.951 433.653 479.842C433.54 479.718 433.382 479.644 433.215 479.637C433.047 479.629 432.884 479.689 432.76 479.802C432.636 479.915 432.563 480.073 432.555 480.24C432.548 480.408 432.607 480.571 432.72 480.695C457.443 507.688 476.841 539.11 489.891 573.308C516.028 641.334 515.885 716.657 489.491 784.584C463.097 852.511 412.346 908.171 347.135 940.706C306.362 960.938 261.469 971.486 215.952 971.528C154.112 971.562 93.8607 951.951 43.8898 915.524C43.7541 915.426 43.585 915.386 43.4196 915.412C43.2541 915.438 43.106 915.529 43.0075 915.665C42.9091 915.8 42.8684 915.969 42.8944 916.135C42.9205 916.3 43.0111 916.449 43.1465 916.547C93.3336 953.131 153.845 972.826 215.952 972.792Z" fill="url(#paint24_linear_1701_745)"/>
</g>
<g opacity="0.64">
<path d="M216.194 955.491C260.508 955.465 304.172 944.819 343.523 924.445C382.875 904.07 416.771 874.562 442.37 838.391C467.969 802.22 484.527 760.441 490.655 716.555C496.783 672.668 492.302 627.952 477.589 586.153C466.888 555.726 450.915 527.42 430.4 502.531C430.348 502.467 430.284 502.414 430.21 502.375C430.137 502.336 430.056 502.311 429.973 502.303C429.891 502.295 429.807 502.304 429.728 502.328C429.648 502.352 429.576 502.392 429.51 502.444C429.382 502.551 429.299 502.705 429.284 502.871C429.268 503.038 429.318 503.205 429.424 503.334C449.845 528.11 465.744 556.285 476.396 586.573C493.742 635.658 496.831 688.653 485.302 739.42C473.774 790.188 448.102 836.652 411.257 873.433C372.893 911.76 324.093 937.944 270.944 948.72C217.796 959.496 162.652 954.386 112.388 934.028C78.2031 920.175 47.1648 899.565 21.133 873.433C21.0143 873.315 20.8537 873.248 20.6862 873.248C20.5188 873.249 20.3583 873.315 20.2398 873.434C20.1214 873.552 20.0549 873.712 20.0547 873.88C20.0545 874.047 20.1208 874.208 20.239 874.327C45.9439 900.097 76.4883 920.534 110.116 934.463C143.745 948.392 179.795 955.539 216.194 955.491Z" fill="url(#paint25_linear_1701_745)"/>
</g>
<g opacity="0.67">
<path d="M216.407 938.23C271.484 938.23 324.224 921.064 368.925 888.588C386.031 876.171 401.566 861.723 415.186 845.559C428.352 829.907 439.613 812.748 448.732 794.441C466.667 758.301 476.017 718.509 476.054 678.164C476.054 623.089 458.888 570.351 426.41 525.651L426.283 525.476C426.185 525.34 426.036 525.25 425.871 525.224C425.705 525.197 425.536 525.238 425.4 525.337C425.265 525.436 425.174 525.584 425.148 525.75C425.122 525.915 425.162 526.085 425.261 526.22L425.388 526.394C457.707 570.876 474.79 623.358 474.79 678.164C474.752 718.314 465.448 757.912 447.601 793.877C438.525 812.094 427.32 829.17 414.219 844.745C400.664 860.83 385.205 875.209 368.182 887.564C323.698 919.883 271.215 936.965 216.407 936.965C176.256 936.928 136.656 927.624 100.69 909.777C82.4724 900.702 65.3962 889.497 49.8201 876.396C33.7346 862.842 19.3557 847.384 6.99949 830.361C6.9507 830.294 6.88914 830.237 6.81834 830.193C6.74754 830.15 6.6689 830.121 6.58687 830.108C6.50484 830.095 6.42106 830.098 6.34031 830.117C6.25957 830.137 6.18339 830.172 6.11619 830.221C6.04902 830.27 5.99208 830.331 5.94868 830.402C5.90529 830.473 5.87626 830.551 5.86326 830.633C5.85026 830.715 5.85356 830.799 5.87294 830.88C5.89232 830.961 5.92744 831.037 5.97627 831.104C18.3929 848.21 32.842 863.743 49.0059 877.364C64.6587 890.529 81.8189 901.789 100.126 910.909C136.267 928.842 176.06 938.192 216.407 938.23Z" fill="url(#paint26_linear_1701_745)"/>
</g>
<g opacity="0.69">
<path d="M216.388 920.983C235.121 920.982 253.79 918.799 272.017 914.478C325.216 901.885 372.604 871.7 406.507 828.813C440.409 785.926 458.837 732.85 458.807 678.182C458.806 659.45 456.623 640.782 452.302 622.555C447.82 603.727 441.112 585.501 432.318 568.26C429.042 561.831 425.449 555.486 421.639 549.402C421.55 549.26 421.408 549.16 421.245 549.122C421.082 549.085 420.91 549.113 420.768 549.202C420.626 549.291 420.525 549.433 420.487 549.596C420.45 549.759 420.479 549.931 420.568 550.073C424.358 556.126 427.932 562.438 431.191 568.834C439.94 585.985 446.612 604.117 451.072 622.847C455.37 640.978 457.54 659.548 457.543 678.182C457.596 732.409 439.383 785.073 405.84 827.681C372.297 870.29 325.379 900.358 272.653 913.037C219.928 925.716 164.469 920.266 115.22 897.567C65.9705 874.868 25.8032 836.243 1.1954 787.921C1.1192 787.771 0.986872 787.658 0.827478 787.607C0.668116 787.555 0.494715 787.569 0.345392 787.645C0.19607 787.721 0.0830629 787.853 0.0311525 788.012C-0.0207884 788.171 -0.00739113 788.345 0.068445 788.494C20.3842 828.391 51.3468 861.886 89.5269 885.27C127.708 908.654 171.615 921.015 216.388 920.983Z" fill="url(#paint27_linear_1701_745)"/>
</g>
<g opacity="0.71">
<path d="M216.148 903.711C251.718 903.745 286.791 895.352 318.493 879.219C350.194 863.086 377.623 839.672 398.531 810.896C419.439 782.119 433.232 748.799 438.78 713.665C444.328 678.531 441.473 642.582 430.449 608.764C426.526 596.689 421.6 584.963 415.722 573.71C415.684 573.636 415.631 573.571 415.568 573.518C415.504 573.464 415.43 573.424 415.351 573.399C415.272 573.375 415.189 573.366 415.106 573.373C415.023 573.381 414.943 573.404 414.869 573.443C414.721 573.52 414.609 573.654 414.559 573.814C414.509 573.974 414.524 574.147 414.602 574.296C420.447 585.486 425.346 597.147 429.246 609.154C440.097 642.526 442.954 677.98 437.586 712.659C432.219 747.337 418.777 780.269 398.345 808.799C370.365 847.939 331.316 876.51 285.418 891.423C252.046 902.273 216.59 905.129 181.911 899.762C147.231 894.395 114.298 880.953 85.7665 860.522C46.6252 832.544 18.0535 793.496 3.14035 747.6C3.1148 747.52 3.07385 747.447 3.01996 747.384C2.96603 747.321 2.90017 747.269 2.82614 747.231C2.75207 747.193 2.67126 747.17 2.58838 747.164C2.50549 747.157 2.42215 747.167 2.34308 747.193C2.26397 747.218 2.19076 747.259 2.12759 747.313C2.06439 747.367 2.01248 747.433 1.97482 747.507C1.93716 747.582 1.91449 747.662 1.90811 747.745C1.90173 747.828 1.91177 747.912 1.93762 747.991C16.6534 793.222 45.2971 832.642 83.7715 860.611C122.246 888.58 168.581 903.666 216.148 903.711Z" fill="url(#paint28_linear_1701_745)"/>
</g>
<g opacity="0.74">
<path d="M215.939 886.401C226.921 886.395 237.885 885.528 248.732 883.81C297.606 876.066 342.119 851.156 374.282 813.553C406.445 775.949 424.152 728.113 424.224 678.631C424.212 651.25 418.845 624.136 408.426 598.814C408.362 598.66 408.239 598.536 408.084 598.472C407.929 598.408 407.755 598.408 407.6 598.472C407.524 598.503 407.454 598.55 407.395 598.608C407.336 598.667 407.29 598.737 407.258 598.813C407.226 598.89 407.21 598.972 407.209 599.055C407.209 599.138 407.226 599.22 407.257 599.297C419.232 628.172 424.499 659.388 422.662 690.594C420.825 721.799 411.931 752.181 396.65 779.452C381.369 806.723 360.1 830.171 334.444 848.031C308.788 865.891 279.414 877.697 248.534 882.561C237.753 884.269 226.855 885.13 215.939 885.136C166.743 885.113 119.171 867.532 81.785 835.557C44.3987 803.582 19.6533 759.312 12.0027 710.717C11.9764 710.551 11.8856 710.403 11.7499 710.304C11.6143 710.206 11.4451 710.165 11.2795 710.191C11.1139 710.217 10.9655 710.308 10.8669 710.444C10.7683 710.58 10.7277 710.749 10.7539 710.914C18.498 759.786 43.4082 804.298 81.0133 836.46C118.618 868.622 166.456 886.328 215.939 886.401Z" fill="url(#paint29_linear_1701_745)"/>
</g>
<g opacity="0.76">
<path d="M216.192 869.091C245.814 869.067 275.023 862.149 301.509 848.885C327.995 835.622 351.03 816.376 368.792 792.671C386.554 768.966 398.554 741.453 403.844 712.308C409.134 683.164 407.568 653.188 399.27 624.754C399.247 624.674 399.208 624.6 399.156 624.535C399.104 624.47 399.04 624.416 398.967 624.376C398.894 624.336 398.814 624.311 398.731 624.302C398.649 624.294 398.565 624.301 398.486 624.325C398.406 624.348 398.332 624.387 398.267 624.439C398.202 624.491 398.148 624.555 398.108 624.628C398.069 624.7 398.043 624.78 398.034 624.863C398.025 624.945 398.033 625.029 398.056 625.109C405.711 651.176 407.67 678.585 403.801 705.477C399.933 732.368 390.327 758.113 375.634 780.966C360.942 803.819 341.507 823.246 318.648 837.929C295.788 852.612 270.039 862.208 243.145 866.066C216.251 869.924 188.842 867.954 162.777 860.29C136.711 852.626 112.598 839.446 92.0737 821.645C71.5489 803.844 55.092 781.838 43.8189 757.119C32.5459 732.4 26.7203 705.546 26.7372 678.377C26.7372 678.21 26.6706 678.049 26.552 677.93C26.4334 677.812 26.2726 677.745 26.105 677.745C25.9373 677.745 25.7765 677.812 25.6579 677.93C25.5393 678.049 25.4727 678.21 25.4727 678.377C25.452 703.428 30.3709 728.237 39.9481 751.385C49.5253 774.533 63.5729 795.565 81.287 813.278C99.0011 830.992 120.034 845.039 143.182 854.616C166.331 864.193 191.141 869.112 216.192 869.091Z" fill="url(#paint30_linear_1701_745)"/>
</g>
<g opacity="0.79">
<path d="M216.408 851.836C257.68 851.817 297.591 837.067 328.956 810.242C360.321 783.416 381.081 746.277 387.499 705.508C388.932 696.464 389.655 687.322 389.66 678.165C389.658 669.192 388.958 660.232 387.566 651.367C387.539 651.201 387.449 651.053 387.313 650.954C387.177 650.855 387.008 650.815 386.843 650.841C386.677 650.867 386.528 650.958 386.43 651.093C386.331 651.229 386.29 651.398 386.316 651.564C387.699 660.363 388.394 669.257 388.396 678.165C388.39 687.256 387.673 696.332 386.25 705.31C379.84 745.765 359.221 782.609 328.093 809.232C296.965 835.855 257.368 850.511 216.408 850.572C207.317 850.567 198.24 849.849 189.261 848.427C148.806 842.016 111.96 821.398 85.3363 790.271C58.7129 759.145 44.0555 719.548 43.995 678.59C44.0002 669.499 44.7174 660.423 46.1403 651.444C46.1662 651.279 46.1254 651.11 46.0268 650.975C45.9283 650.839 45.78 650.748 45.6147 650.722C45.4493 650.696 45.2803 650.736 45.1447 650.835C45.0091 650.933 44.918 651.081 44.8915 651.246C43.4581 660.29 42.7356 669.433 42.7305 678.59C42.7499 719.861 57.5002 759.77 84.3265 791.134C111.153 822.498 148.293 843.257 189.064 849.675C198.108 851.109 207.251 851.831 216.408 851.836Z" fill="url(#paint31_linear_1701_745)"/>
</g>
<g opacity="0.81">
<path d="M216.226 834.572C257.64 834.521 297.342 818.044 326.62 788.755C355.898 759.466 372.361 719.758 372.395 678.346V678.162C372.394 677.994 372.327 677.834 372.209 677.716C372.09 677.598 371.93 677.531 371.762 677.531H371.76C371.593 677.532 371.432 677.599 371.314 677.718C371.196 677.837 371.13 677.998 371.13 678.166V678.346C371.155 700.754 366.318 722.901 356.953 743.258C347.589 763.616 333.919 781.7 316.888 796.263C299.857 810.826 279.87 821.522 258.304 827.612C236.739 833.703 214.109 835.043 191.976 831.54C169.842 828.037 148.732 819.775 130.101 807.324C111.47 794.872 95.7624 778.528 84.0607 759.418C72.3589 740.307 64.9419 718.886 62.3213 696.632C59.7008 674.377 61.939 651.819 68.8816 630.514C68.9074 630.435 68.9174 630.351 68.911 630.269C68.9046 630.186 68.8819 630.105 68.8442 630.031C68.8065 629.957 68.7546 629.891 68.6914 629.837C68.6282 629.783 68.555 629.742 68.4759 629.716C68.3968 629.69 68.3135 629.68 68.2306 629.687C68.1477 629.694 68.0669 629.716 67.9929 629.754C67.9189 629.792 67.8531 629.844 67.7992 629.907C67.7453 629.971 67.7044 630.044 67.6789 630.123C60.0816 653.564 58.1356 678.47 61.9996 702.806C65.8637 727.143 75.4283 750.221 89.9127 770.156C104.397 790.091 123.391 806.319 145.343 817.514C167.295 828.709 191.584 834.554 216.226 834.572Z" fill="url(#paint32_linear_1701_745)"/>
</g>
<g opacity="0.83">
<path d="M216.081 817.28C248.239 817.271 279.4 806.12 304.263 785.725C329.126 765.331 346.153 736.951 352.449 705.417C352.481 705.253 352.447 705.082 352.354 704.943C352.261 704.804 352.116 704.707 351.952 704.675C351.788 704.642 351.617 704.676 351.478 704.769C351.338 704.861 351.242 705.006 351.209 705.17C344.995 736.43 328.129 764.566 303.487 784.78C278.845 804.993 247.954 816.033 216.081 816.016C192.358 815.978 169.047 809.818 148.403 798.13C127.759 786.443 110.482 769.624 98.2441 749.302C85.3637 727.845 78.5564 703.292 78.5497 678.266C78.5205 656.578 83.6731 635.198 93.5786 615.904C93.6547 615.755 93.6683 615.581 93.6165 615.422C93.5647 615.262 93.4516 615.13 93.3022 615.054C93.1527 614.978 92.9792 614.964 92.8197 615.016C92.6601 615.068 92.5277 615.181 92.4516 615.33C82.4553 634.801 77.2556 656.379 77.2853 678.266C77.267 703.899 84.3442 729.038 97.7332 750.897C111.122 772.756 130.3 790.483 153.143 802.114C172.615 812.11 194.193 817.31 216.081 817.28Z" fill="url(#paint33_linear_1701_745)"/>
</g>
<g opacity="0.86">
<path d="M216.092 799.979C239.042 799.976 261.525 793.49 280.949 781.268C300.374 769.045 315.951 751.584 325.885 730.896C325.921 730.821 325.942 730.74 325.947 730.657C325.951 730.574 325.94 730.491 325.912 730.412C325.885 730.334 325.842 730.261 325.787 730.2C325.731 730.138 325.664 730.087 325.589 730.051C325.514 730.015 325.433 729.994 325.35 729.99C325.267 729.985 325.184 729.997 325.105 730.025C325.027 730.052 324.955 730.095 324.893 730.151C324.831 730.206 324.781 730.274 324.745 730.349C314.939 750.842 299.53 768.139 280.302 780.238C261.073 792.337 238.81 798.743 216.092 798.715C193.747 798.686 171.85 792.444 152.85 780.684C133.85 768.925 118.495 752.113 108.503 732.127C100.198 715.39 95.868 696.962 95.8506 678.278C95.8125 652.89 103.865 628.151 118.84 607.65C118.889 607.583 118.924 607.507 118.944 607.426C118.963 607.345 118.966 607.261 118.953 607.179C118.94 607.097 118.911 607.019 118.868 606.948C118.825 606.877 118.768 606.816 118.701 606.767C118.633 606.718 118.557 606.683 118.476 606.663C118.396 606.644 118.312 606.641 118.23 606.654C118.148 606.667 118.069 606.696 117.998 606.739C117.928 606.783 117.866 606.84 117.817 606.907C102.684 627.623 94.5474 652.623 94.5861 678.278C94.5581 697.487 99.0877 716.428 107.802 733.546C116.517 750.664 129.169 765.47 144.718 776.748C165.436 791.88 190.436 800.018 216.092 799.979Z" fill="url(#paint34_linear_1701_745)"/>
</g>
<g opacity="0.88">
<path d="M216.196 782.691C229.9 782.728 243.476 780.047 256.137 774.802C268.799 769.558 280.293 761.854 289.957 752.137C290.076 752.019 290.142 751.859 290.143 751.691C290.143 751.524 290.077 751.363 289.96 751.245C289.842 751.126 289.68 751.059 289.513 751.058C289.345 751.057 289.186 751.123 289.066 751.241C269.74 770.567 243.529 781.424 216.198 781.425C188.867 781.425 162.654 770.569 143.328 751.244C124.002 731.918 113.144 705.708 113.144 678.378C113.143 651.048 124 624.837 143.326 605.511C143.444 605.392 143.511 605.232 143.511 605.064C143.511 604.897 143.444 604.736 143.326 604.618C143.207 604.499 143.046 604.433 142.878 604.433C142.712 604.432 142.551 604.499 142.433 604.617C127.844 619.205 117.909 637.792 113.884 658.027C109.859 678.262 111.924 699.235 119.82 718.296C127.715 737.357 141.085 753.648 158.24 765.11C175.394 776.573 195.564 782.69 216.196 782.691Z" fill="url(#paint35_linear_1701_745)"/>
</g>
<g opacity="0.91">
<path d="M216.262 765.416C225.41 765.421 234.5 763.978 243.196 761.139C243.275 761.113 243.348 761.072 243.411 761.018C243.474 760.964 243.526 760.898 243.564 760.824C243.601 760.75 243.624 760.669 243.63 760.587C243.637 760.504 243.627 760.421 243.601 760.342C243.575 760.263 243.534 760.19 243.48 760.127C243.426 760.063 243.36 760.012 243.286 759.974C243.212 759.937 243.131 759.914 243.048 759.908C242.966 759.901 242.882 759.911 242.803 759.937C234.234 762.734 225.276 764.157 216.262 764.151C202.712 764.171 189.351 760.977 177.276 754.83C165.201 748.682 154.757 739.758 146.801 728.791C136.127 714.178 130.387 696.544 130.414 678.448C130.394 664.899 133.589 651.538 139.736 639.463C145.884 627.389 154.808 616.945 165.776 608.989C165.844 608.94 165.901 608.879 165.945 608.808C165.989 608.737 166.019 608.658 166.032 608.576C166.045 608.494 166.042 608.41 166.023 608.329C166.003 608.248 165.968 608.171 165.919 608.104C165.87 608.036 165.808 607.979 165.737 607.936C165.666 607.892 165.587 607.864 165.505 607.851C165.422 607.838 165.338 607.842 165.257 607.861C165.176 607.881 165.1 607.917 165.033 607.966C150.151 618.77 139.074 634.01 133.392 651.499C127.709 668.988 127.713 687.828 133.403 705.315C139.093 722.802 150.176 738.038 165.062 748.835C179.948 759.633 197.872 765.437 216.262 765.416Z" fill="url(#paint36_linear_1701_745)"/>
</g>
<g opacity="0.93">
<path d="M189.883 742.929C190.03 742.929 190.172 742.879 190.285 742.786C190.398 742.693 190.476 742.563 190.504 742.42C190.533 742.276 190.51 742.127 190.441 741.998C190.372 741.869 190.26 741.768 190.124 741.712C174.994 735.486 162.593 724.048 155.166 709.47C151.077 701.458 148.607 692.718 147.899 683.75C147.19 674.782 148.256 665.763 151.036 657.207C153.816 648.652 158.255 640.729 164.099 633.89C169.944 627.052 177.079 621.432 185.097 617.354C185.247 617.277 185.36 617.145 185.412 616.986C185.463 616.826 185.45 616.653 185.374 616.503C185.298 616.354 185.165 616.241 185.006 616.189C184.846 616.137 184.673 616.151 184.524 616.227C172.634 622.285 162.732 631.625 155.992 643.141C149.251 654.656 145.955 667.863 146.494 681.195C147.033 694.527 151.384 707.425 159.032 718.359C166.681 729.293 177.304 737.804 189.643 742.882C189.72 742.913 189.801 742.929 189.883 742.929Z" fill="url(#paint37_linear_1701_745)"/>
</g>
<g opacity="0.95">
<path d="M164.336 679.173H164.34C164.508 679.172 164.668 679.104 164.786 678.985C164.904 678.865 164.969 678.704 164.968 678.536L164.967 678.367C164.951 667.548 168.37 657.003 174.732 648.252C181.094 639.502 190.07 632.997 200.367 629.676C200.526 629.624 200.659 629.511 200.735 629.361C200.811 629.212 200.825 629.038 200.773 628.879C200.721 628.719 200.608 628.587 200.458 628.511C200.309 628.435 200.135 628.421 199.976 628.473C189.425 631.876 180.227 638.542 173.708 647.509C167.189 656.476 163.686 667.281 163.703 678.367V678.545C163.705 678.712 163.772 678.872 163.89 678.989C164.009 679.107 164.169 679.173 164.336 679.173Z" fill="url(#paint38_linear_1701_745)"/>
</g>
<g opacity="0.98">
<path d="M240.659 654.594C240.784 654.594 240.907 654.557 241.011 654.488C241.115 654.418 241.196 654.32 241.244 654.204C241.291 654.089 241.304 653.961 241.28 653.839C241.255 653.716 241.195 653.604 241.107 653.515C237.851 650.233 233.976 647.63 229.708 645.856C225.439 644.082 220.86 643.172 216.237 643.18C214.379 643.181 212.524 643.327 210.689 643.618C210.524 643.644 210.375 643.735 210.277 643.871C210.178 644.006 210.137 644.176 210.164 644.341C210.19 644.507 210.281 644.655 210.416 644.754C210.552 644.852 210.721 644.893 210.887 644.867C212.657 644.587 214.446 644.445 216.237 644.444C220.694 644.437 225.108 645.314 229.223 647.025C233.339 648.735 237.074 651.245 240.212 654.409C240.271 654.468 240.341 654.515 240.417 654.546C240.494 654.578 240.576 654.594 240.659 654.594Z" fill="url(#paint39_linear_1701_745)"/>
</g>
<path d="M216.194 696.289C220.944 696.284 225.497 694.395 228.855 691.037C232.213 687.679 234.102 683.126 234.107 678.377C234.107 678.126 234.102 677.877 234.092 677.629C234.09 677.545 234.071 677.463 234.036 677.388C234.002 677.312 233.952 677.244 233.891 677.187C233.83 677.131 233.758 677.087 233.679 677.059C233.601 677.031 233.517 677.019 233.434 677.023C233.351 677.027 233.27 677.046 233.194 677.081C233.119 677.116 233.051 677.166 232.995 677.227C232.939 677.288 232.895 677.359 232.867 677.437C232.838 677.515 232.825 677.598 232.829 677.681C232.838 677.912 232.843 678.144 232.843 678.377C232.843 681.67 231.866 684.889 230.037 687.626C228.208 690.364 225.608 692.498 222.566 693.758C219.523 695.018 216.176 695.348 212.946 694.705C209.717 694.063 206.75 692.477 204.422 690.149C202.094 687.821 200.508 684.854 199.866 681.625C199.223 678.396 199.553 675.048 200.813 672.006C202.073 668.964 204.207 666.364 206.945 664.535C209.683 662.706 212.902 661.729 216.194 661.729C216.362 661.729 216.523 661.663 216.641 661.544C216.76 661.426 216.827 661.265 216.827 661.097C216.827 660.929 216.76 660.769 216.641 660.65C216.523 660.531 216.362 660.465 216.194 660.465C211.444 660.465 206.887 662.352 203.528 665.711C200.169 669.07 198.281 673.627 198.281 678.377C198.281 683.128 200.169 687.684 203.528 691.043C206.887 694.402 211.444 696.289 216.194 696.289Z" fill="url(#paint40_linear_1701_745)"/>
</g>
<defs>
<linearGradient id="paint0_linear_1701_745" x1="456.523" y1="12.5532" x2="457.789" y2="11.288" gradientUnits="userSpaceOnUse">
<stop stop-color="#91E998"/>
<stop offset="1" stop-color="#6366F7"/>
</linearGradient>
<linearGradient id="paint1_linear_1701_745" x1="351.363" y1="30.7772" x2="367.876" y2="-25.9722" gradientUnits="userSpaceOnUse">
<stop stop-color="#91E998"/>
<stop offset="1" stop-color="#6366F7"/>
</linearGradient>
<linearGradient id="paint2_linear_1701_745" x1="423.82" y1="49.1875" x2="431.996" y2="27.5043" gradientUnits="userSpaceOnUse">
<stop stop-color="#91E998"/>
<stop offset="1" stop-color="#6366F7"/>
</linearGradient>
<linearGradient id="paint3_linear_1701_745" x1="454.105" y1="93.9358" x2="475.409" y2="47.693" gradientUnits="userSpaceOnUse">
<stop stop-color="#91E998"/>
<stop offset="1" stop-color="#6366F7"/>
</linearGradient>
<linearGradient id="paint4_linear_1701_745" x1="453.852" y1="161.753" x2="519.795" y2="43.6147" gradientUnits="userSpaceOnUse">
<stop stop-color="#91E998"/>
<stop offset="1" stop-color="#6366F7"/>
</linearGradient>
<linearGradient id="paint5_linear_1701_745" x1="453.598" y1="239.13" x2="579.734" y2="51.1616" gradientUnits="userSpaceOnUse">
<stop stop-color="#91E998"/>
<stop offset="1" stop-color="#6366F7"/>
</linearGradient>
<linearGradient id="paint6_linear_1701_745" x1="453.332" y1="323.515" x2="650.328" y2="76.9441" gradientUnits="userSpaceOnUse">
<stop stop-color="#91E998"/>
<stop offset="1" stop-color="#6366F7"/>
</linearGradient>
<linearGradient id="paint7_linear_1701_745" x1="452.672" y1="412.279" x2="724.362" y2="125.063" gradientUnits="userSpaceOnUse">
<stop stop-color="#91E998"/>
<stop offset="1" stop-color="#6366F7"/>
</linearGradient>
<linearGradient id="paint8_linear_1701_745" x1="452.438" y1="502.794" x2="793.99" y2="198.036" gradientUnits="userSpaceOnUse">
<stop stop-color="#91E998"/>
<stop offset="1" stop-color="#6366F7"/>
</linearGradient>
<linearGradient id="paint9_linear_1701_745" x1="451.852" y1="592.507" x2="850.048" y2="293.785" gradientUnits="userSpaceOnUse">
<stop stop-color="#91E998"/>
<stop offset="1" stop-color="#6366F7"/>
</linearGradient>
<linearGradient id="paint10_linear_1701_745" x1="451.711" y1="679.009" x2="884.808" y2="408.839" gradientUnits="userSpaceOnUse">
<stop stop-color="#91E998"/>
<stop offset="1" stop-color="#6366F7"/>
</linearGradient>
<linearGradient id="paint11_linear_1701_745" x1="451.074" y1="760.106" x2="897.767" y2="526.847" gradientUnits="userSpaceOnUse">
<stop stop-color="#91E998"/>
<stop offset="1" stop-color="#6366F7"/>
</linearGradient>
<linearGradient id="paint12_linear_1701_745" x1="450.344" y1="833.865" x2="896.659" y2="634.338" gradientUnits="userSpaceOnUse">
<stop stop-color="#91E998"/>
<stop offset="1" stop-color="#6366F7"/>
</linearGradient>
<linearGradient id="paint13_linear_1701_745" x1="449.629" y1="898.669" x2="885.701" y2="728.705" gradientUnits="userSpaceOnUse">
<stop stop-color="#91E998"/>
<stop offset="1" stop-color="#6366F7"/>
</linearGradient>
<linearGradient id="paint14_linear_1701_745" x1="448.918" y1="953.248" x2="868.042" y2="808.607" gradientUnits="userSpaceOnUse">
<stop stop-color="#91E998"/>
<stop offset="1" stop-color="#6366F7"/>
</linearGradient>
<linearGradient id="paint15_linear_1701_745" x1="447.855" y1="996.7" x2="846.078" y2="873.174" gradientUnits="userSpaceOnUse">
<stop stop-color="#91E998"/>
<stop offset="1" stop-color="#6366F7"/>
</linearGradient>
<linearGradient id="paint16_linear_1701_745" x1="447.074" y1="1028.51" x2="820.944" y2="923.084" gradientUnits="userSpaceOnUse">
<stop stop-color="#91E998"/>
<stop offset="1" stop-color="#6366F7"/>
</linearGradient>
<linearGradient id="paint17_linear_1701_745" x1="403.848" y1="1048.53" x2="817.552" y2="916.867" gradientUnits="userSpaceOnUse">
<stop stop-color="#91E998"/>
<stop offset="1" stop-color="#6366F7"/>
</linearGradient>
<linearGradient id="paint18_linear_1701_745" x1="338.383" y1="1057" x2="816.842" y2="869.392" gradientUnits="userSpaceOnUse">
<stop stop-color="#91E998"/>
<stop offset="1" stop-color="#6366F7"/>
</linearGradient>
<linearGradient id="paint19_linear_1701_745" x1="275.035" y1="1054.49" x2="801.402" y2="805.608" gradientUnits="userSpaceOnUse">
<stop stop-color="#91E998"/>
<stop offset="1" stop-color="#6366F7"/>
</linearGradient>
<linearGradient id="paint20_linear_1701_745" x1="215.563" y1="1041.89" x2="769.006" y2="730.79" gradientUnits="userSpaceOnUse">
<stop stop-color="#91E998"/>
<stop offset="1" stop-color="#6366F7"/>
</linearGradient>
<linearGradient id="paint21_linear_1701_745" x1="161.496" y1="1024.66" x2="721.364" y2="656.481" gradientUnits="userSpaceOnUse">
<stop stop-color="#91E998"/>
<stop offset="1" stop-color="#6366F7"/>
</linearGradient>
<linearGradient id="paint22_linear_1701_745" x1="114.098" y1="1007.42" x2="663.491" y2="592.804" gradientUnits="userSpaceOnUse">
<stop stop-color="#91E998"/>
<stop offset="1" stop-color="#6366F7"/>
</linearGradient>
<linearGradient id="paint23_linear_1701_745" x1="74.3477" y1="990.118" x2="599.921" y2="542.32" gradientUnits="userSpaceOnUse">
<stop stop-color="#91E998"/>
<stop offset="1" stop-color="#6366F7"/>
</linearGradient>
<linearGradient id="paint24_linear_1701_745" x1="42.8867" y1="972.792" x2="535.352" y2="505.716" gradientUnits="userSpaceOnUse">
<stop stop-color="#91E998"/>
<stop offset="1" stop-color="#6366F7"/>
</linearGradient>
<linearGradient id="paint25_linear_1701_745" x1="20.0547" y1="955.491" x2="472.821" y2="482.671" gradientUnits="userSpaceOnUse">
<stop stop-color="#91E998"/>
<stop offset="1" stop-color="#6366F7"/>
</linearGradient>
<linearGradient id="paint26_linear_1701_745" x1="5.85547" y1="938.23" x2="415.421" y2="471.957" gradientUnits="userSpaceOnUse">
<stop stop-color="#91E998"/>
<stop offset="1" stop-color="#6366F7"/>
</linearGradient>
<linearGradient id="paint27_linear_1701_745" x1="7.92419e-07" y1="920.983" x2="363.82" y2="472.117" gradientUnits="userSpaceOnUse">
<stop stop-color="#91E998"/>
<stop offset="1" stop-color="#6366F7"/>
</linearGradient>
<linearGradient id="paint28_linear_1701_745" x1="1.90625" y1="903.712" x2="319.199" y2="481.447" gradientUnits="userSpaceOnUse">
<stop stop-color="#91E998"/>
<stop offset="1" stop-color="#6366F7"/>
</linearGradient>
<linearGradient id="paint29_linear_1701_745" x1="10.7461" y1="886.401" x2="280.858" y2="498.573" gradientUnits="userSpaceOnUse">
<stop stop-color="#91E998"/>
<stop offset="1" stop-color="#6366F7"/>
</linearGradient>
<linearGradient id="paint30_linear_1701_745" x1="25.4727" y1="869.091" x2="248.013" y2="522.324" gradientUnits="userSpaceOnUse">
<stop stop-color="#91E998"/>
<stop offset="1" stop-color="#6366F7"/>
</linearGradient>
<linearGradient id="paint31_linear_1701_745" x1="42.7305" y1="851.836" x2="217.263" y2="550.772" gradientUnits="userSpaceOnUse">
<stop stop-color="#91E998"/>
<stop offset="1" stop-color="#6366F7"/>
</linearGradient>
<linearGradient id="paint32_linear_1701_745" x1="60.0664" y1="834.572" x2="248.002" y2="548.083" gradientUnits="userSpaceOnUse">
<stop stop-color="#91E998"/>
<stop offset="1" stop-color="#6366F7"/>
</linearGradient>
<linearGradient id="paint33_linear_1701_745" x1="77.2852" y1="817.28" x2="270.368" y2="554.635" gradientUnits="userSpaceOnUse">
<stop stop-color="#91E998"/>
<stop offset="1" stop-color="#6366F7"/>
</linearGradient>
<linearGradient id="paint34_linear_1701_745" x1="94.5859" y1="799.98" x2="284.843" y2="572.298" gradientUnits="userSpaceOnUse">
<stop stop-color="#91E998"/>
<stop offset="1" stop-color="#6366F7"/>
</linearGradient>
<linearGradient id="paint35_linear_1701_745" x1="111.879" y1="782.691" x2="290.137" y2="604.426" gradientUnits="userSpaceOnUse">
<stop stop-color="#91E998"/>
<stop offset="1" stop-color="#6366F7"/>
</linearGradient>
<linearGradient id="paint36_linear_1701_745" x1="129.133" y1="765.416" x2="279" y2="656.516" gradientUnits="userSpaceOnUse">
<stop stop-color="#91E998"/>
<stop offset="1" stop-color="#6366F7"/>
</linearGradient>
<linearGradient id="paint37_linear_1701_745" x1="146.438" y1="742.929" x2="225.087" y2="715.582" gradientUnits="userSpaceOnUse">
<stop stop-color="#91E998"/>
<stop offset="1" stop-color="#6366F7"/>
</linearGradient>
<linearGradient id="paint38_linear_1701_745" x1="163.703" y1="679.173" x2="212.048" y2="643.817" gradientUnits="userSpaceOnUse">
<stop stop-color="#91E998"/>
<stop offset="1" stop-color="#6366F7"/>
</linearGradient>
<linearGradient id="paint39_linear_1701_745" x1="210.156" y1="654.594" x2="217.533" y2="634.47" gradientUnits="userSpaceOnUse">
<stop stop-color="#91E998"/>
<stop offset="1" stop-color="#6366F7"/>
</linearGradient>
<linearGradient id="paint40_linear_1701_745" x1="198.281" y1="696.289" x2="234.105" y2="660.463" gradientUnits="userSpaceOnUse">
<stop stop-color="#91E998"/>
<stop offset="1" stop-color="#6366F7"/>
</linearGradient>
<clipPath id="clip0_1701_745">
<rect width="763" height="1057" fill="white"/>
</clipPath>
</defs>
</svg>
