<svg width="140" height="24" viewBox="0 0 140 24" fill="none" xmlns="http://www.w3.org/2000/svg">
<path d="M17.6601 22.6698C17.1301 22.6698 16.4501 22.4998 15.6001 21.9998L12.6101 20.2298C12.3001 20.0498 11.7001 20.0498 11.4001 20.2298L8.40012 21.9998C6.63012 23.0498 5.59012 22.6298 5.12012 22.2898C4.66012 21.9498 3.94012 21.0798 4.41012 19.0798L5.12012 16.0098C5.20012 15.6898 5.04012 15.1398 4.80012 14.8998L2.32012 12.4198C1.08012 11.1798 1.18012 10.1198 1.35012 9.59982C1.52012 9.07982 2.06012 8.15982 3.78012 7.86982L6.97012 7.33982C7.27012 7.28982 7.70012 6.96982 7.83012 6.69982L9.60012 3.16982C10.4001 1.55982 11.4501 1.31982 12.0001 1.31982C12.5501 1.31982 13.6001 1.55982 14.4001 3.16982L16.1601 6.68982C16.3001 6.95982 16.7301 7.27982 17.0301 7.32982L20.2201 7.85982C21.9501 8.14982 22.4901 9.06982 22.6501 9.58982C22.8101 10.1098 22.9101 11.1698 21.6801 12.4098L19.2001 14.8998C18.9601 15.1398 18.8101 15.6798 18.8801 16.0098L19.5901 19.0798C20.0501 21.0798 19.3401 21.9498 18.8801 22.2898C18.6301 22.4698 18.2301 22.6698 17.6601 22.6698Z" fill="#FFBF00"/>
<path d="M46.6601 22.6698C46.1301 22.6698 45.4501 22.4998 44.6001 21.9998L41.6101 20.2298C41.3001 20.0498 40.7001 20.0498 40.4001 20.2298L37.4001 21.9998C35.6301 23.0498 34.5901 22.6298 34.1201 22.2898C33.6601 21.9498 32.9401 21.0798 33.4101 19.0798L34.1201 16.0098C34.2001 15.6898 34.0401 15.1398 33.8001 14.8998L31.3201 12.4198C30.0801 11.1798 30.1801 10.1198 30.3501 9.59982C30.5201 9.07982 31.0601 8.15982 32.7801 7.86982L35.9701 7.33982C36.2701 7.28982 36.7001 6.96982 36.8301 6.69982L38.6001 3.16982C39.4001 1.55982 40.4501 1.31982 41.0001 1.31982C41.5501 1.31982 42.6001 1.55982 43.4001 3.16982L45.1601 6.68982C45.3001 6.95982 45.7301 7.27982 46.0301 7.32982L49.2201 7.85982C50.9501 8.14982 51.4901 9.06982 51.6501 9.58982C51.8101 10.1098 51.9101 11.1698 50.6801 12.4098L48.2001 14.8998C47.9601 15.1398 47.8101 15.6798 47.8801 16.0098L48.5901 19.0798C49.0501 21.0798 48.3401 21.9498 47.8801 22.2898C47.6301 22.4698 47.2301 22.6698 46.6601 22.6698Z" fill="#FFBF00"/>
<path d="M75.6601 22.6698C75.1301 22.6698 74.4501 22.4998 73.6001 21.9998L70.6101 20.2298C70.3001 20.0498 69.7001 20.0498 69.4001 20.2298L66.4001 21.9998C64.6301 23.0498 63.5901 22.6298 63.1201 22.2898C62.6601 21.9498 61.9401 21.0798 62.4101 19.0798L63.1201 16.0098C63.2001 15.6898 63.0401 15.1398 62.8001 14.8998L60.3201 12.4198C59.0801 11.1798 59.1801 10.1198 59.3501 9.59982C59.5201 9.07982 60.0601 8.15982 61.7801 7.86982L64.9701 7.33982C65.2701 7.28982 65.7001 6.96982 65.8301 6.69982L67.6001 3.16982C68.4001 1.55982 69.4501 1.31982 70.0001 1.31982C70.5501 1.31982 71.6001 1.55982 72.4001 3.16982L74.1601 6.68982C74.3001 6.95982 74.7301 7.27982 75.0301 7.32982L78.2201 7.85982C79.9501 8.14982 80.4901 9.06982 80.6501 9.58982C80.8101 10.1098 80.9101 11.1698 79.6801 12.4098L77.2001 14.8998C76.9601 15.1398 76.8101 15.6798 76.8801 16.0098L77.5901 19.0798C78.0501 21.0798 77.3401 21.9498 76.8801 22.2898C76.6301 22.4698 76.2301 22.6698 75.6601 22.6698Z" fill="#FFBF00"/>
<path d="M104.66 22.6698C104.13 22.6698 103.45 22.4998 102.6 21.9998L99.6101 20.2298C99.3001 20.0498 98.7001 20.0498 98.4001 20.2298L95.4001 21.9998C93.6301 23.0498 92.5901 22.6298 92.1201 22.2898C91.6601 21.9498 90.9401 21.0798 91.4101 19.0798L92.1201 16.0098C92.2001 15.6898 92.0401 15.1398 91.8001 14.8998L89.3201 12.4198C88.0801 11.1798 88.1801 10.1198 88.3501 9.59982C88.5201 9.07982 89.0601 8.15982 90.7801 7.86982L93.9701 7.33982C94.2701 7.28982 94.7001 6.96982 94.8301 6.69982L96.6001 3.16982C97.4001 1.55982 98.4501 1.31982 99.0001 1.31982C99.5501 1.31982 100.6 1.55982 101.4 3.16982L103.16 6.68982C103.3 6.95982 103.73 7.27982 104.03 7.32982L107.22 7.85982C108.95 8.14982 109.49 9.06982 109.65 9.58982C109.81 10.1098 109.91 11.1698 108.68 12.4098L106.2 14.8998C105.96 15.1398 105.81 15.6798 105.88 16.0098L106.59 19.0798C107.05 21.0798 106.34 21.9498 105.88 22.2898C105.63 22.4698 105.23 22.6698 104.66 22.6698Z" fill="#FFBF00"/>
<path d="M133.66 22.6698C133.13 22.6698 132.45 22.4998 131.6 21.9998L128.61 20.2298C128.3 20.0498 127.7 20.0498 127.4 20.2298L124.4 21.9998C122.63 23.0498 121.59 22.6298 121.12 22.2898C120.66 21.9498 119.94 21.0798 120.41 19.0798L121.12 16.0098C121.2 15.6898 121.04 15.1398 120.8 14.8998L118.32 12.4198C117.08 11.1798 117.18 10.1198 117.35 9.59982C117.52 9.07982 118.06 8.15982 119.78 7.86982L122.97 7.33982C123.27 7.28982 123.7 6.96982 123.83 6.69982L125.6 3.16982C126.4 1.55982 127.45 1.31982 128 1.31982C128.55 1.31982 129.6 1.55982 130.4 3.16982L132.16 6.68982C132.3 6.95982 132.73 7.27982 133.03 7.32982L136.22 7.85982C137.95 8.14982 138.49 9.06982 138.65 9.58982C138.81 10.1098 138.91 11.1698 137.68 12.4098L135.2 14.8998C134.96 15.1398 134.81 15.6798 134.88 16.0098L135.59 19.0798C136.05 21.0798 135.34 21.9498 134.88 22.2898C134.63 22.4698 134.23 22.6698 133.66 22.6698Z" fill="#FFBF00"/>
<mask id="mask0_1031_5495" style="mask-type:alpha" maskUnits="userSpaceOnUse" x="117" y="1" width="22" height="22">
<path d="M133.66 22.6698C133.13 22.6698 132.45 22.4998 131.6 21.9998L128.61 20.2298C128.3 20.0498 127.7 20.0498 127.4 20.2298L124.4 21.9998C122.63 23.0498 121.59 22.6298 121.12 22.2898C120.66 21.9498 119.94 21.0798 120.41 19.0798L121.12 16.0098C121.2 15.6898 121.04 15.1398 120.8 14.8998L118.32 12.4198C117.08 11.1798 117.18 10.1198 117.35 9.59982C117.52 9.07982 118.06 8.15982 119.78 7.86982L122.97 7.33982C123.27 7.28982 123.7 6.96982 123.83 6.69982L125.6 3.16982C126.4 1.55982 127.45 1.31982 128 1.31982C128.55 1.31982 129.6 1.55982 130.4 3.16982L132.16 6.68982C132.3 6.95982 132.73 7.27982 133.03 7.32982L136.22 7.85982C137.95 8.14982 138.49 9.06982 138.65 9.58982C138.81 10.1098 138.91 11.1698 137.68 12.4098L135.2 14.8998C134.96 15.1398 134.81 15.6798 134.88 16.0098L135.59 19.0798C136.05 21.0798 135.34 21.9498 134.88 22.2898C134.63 22.4698 134.23 22.6698 133.66 22.6698Z" fill="#FFBF00"/>
</mask>
<g mask="url(#mask0_1031_5495)">
<rect opacity="0.7" x="128" y="1" width="11" height="22" fill="#EBF2FC"/>
</g>
</svg>
