<svg width="347" height="120" viewBox="0 0 347 120" fill="none" xmlns="http://www.w3.org/2000/svg">
<g filter="url(#filter0_d_1031_5909)">
<rect x="40" y="40" width="267" height="40" rx="10" fill="#2F2F2F"/>
</g>
<path d="M66.6719 57.4929C66.6188 57.0223 66.4001 56.6577 66.0156 56.3991C65.6312 56.1373 65.1473 56.0064 64.5639 56.0064C64.1463 56.0064 63.785 56.0727 63.4801 56.2053C63.1752 56.3345 62.9382 56.5135 62.7692 56.7422C62.6035 56.9676 62.5206 57.2244 62.5206 57.5128C62.5206 57.7547 62.5769 57.9635 62.6896 58.1392C62.8056 58.3149 62.9564 58.4624 63.142 58.5817C63.331 58.6977 63.5331 58.7955 63.7486 58.875C63.964 58.9512 64.1712 59.0142 64.37 59.0639L65.3643 59.3224C65.6892 59.402 66.0223 59.5097 66.3636 59.6456C66.705 59.7815 67.0215 59.9605 67.3132 60.1825C67.6049 60.4046 67.8402 60.6797 68.0192 61.0078C68.2015 61.3359 68.2926 61.7287 68.2926 62.1861C68.2926 62.7628 68.1435 63.2749 67.8452 63.7223C67.5502 64.1697 67.121 64.5227 66.5575 64.7812C65.9974 65.0398 65.3196 65.169 64.5241 65.169C63.7618 65.169 63.1023 65.0481 62.5455 64.8061C61.9886 64.5642 61.5528 64.2211 61.2379 63.777C60.9231 63.3295 60.7491 62.7992 60.7159 62.1861H62.2571C62.2869 62.554 62.4063 62.8606 62.6151 63.1058C62.8272 63.3478 63.0973 63.5284 63.4254 63.6477C63.7569 63.7637 64.1198 63.8217 64.5142 63.8217C64.9484 63.8217 65.3345 63.7538 65.6726 63.6179C66.014 63.4787 66.2824 63.2865 66.478 63.0412C66.6735 62.7926 66.7713 62.5026 66.7713 62.1712C66.7713 61.8696 66.6851 61.6226 66.5128 61.4304C66.3438 61.2382 66.1134 61.0791 65.8217 60.9531C65.5334 60.8272 65.2069 60.7161 64.8423 60.62L63.6392 60.2919C62.8239 60.0698 62.1776 59.7434 61.7003 59.3125C61.2263 58.8816 60.9893 58.3116 60.9893 57.6023C60.9893 57.0156 61.1484 56.5036 61.4666 56.0661C61.7848 55.6286 62.2157 55.2888 62.7592 55.0469C63.3028 54.8016 63.916 54.679 64.5987 54.679C65.2881 54.679 65.8963 54.8 66.4233 55.0419C66.9536 55.2839 67.3712 55.617 67.6761 56.0412C67.9811 56.4621 68.1402 56.946 68.1534 57.4929H66.6719ZM70.9487 67.8636C70.7266 67.8636 70.5244 67.8454 70.3422 67.8089C70.1599 67.7758 70.024 67.7393 69.9345 67.6996L70.2924 66.4815C70.5642 66.5545 70.8062 66.5859 71.0183 66.576C71.2304 66.5661 71.4177 66.4865 71.5801 66.3374C71.7458 66.1882 71.8916 65.9446 72.0176 65.6065L72.2015 65.0994L69.4075 57.3636H70.9984L72.9324 63.2898H73.0119L74.9458 57.3636H76.5417L73.3947 66.0192C73.2489 66.4169 73.0633 66.7533 72.8379 67.0284C72.6125 67.3068 72.344 67.5156 72.0325 67.6548C71.7209 67.794 71.3597 67.8636 70.9487 67.8636ZM79.4252 60.4659V65H77.9387V57.3636H79.3656V58.6065H79.46C79.6357 58.2022 79.9108 57.8774 80.2853 57.6321C80.6632 57.3868 81.1388 57.2642 81.7122 57.2642C82.2325 57.2642 82.6883 57.3736 83.0794 57.5923C83.4705 57.8078 83.7737 58.1293 83.9892 58.5568C84.2046 58.9844 84.3123 59.513 84.3123 60.1428V65H82.8258V60.3217C82.8258 59.7682 82.6816 59.3357 82.3933 59.0241C82.1049 58.7093 81.7089 58.5518 81.2051 58.5518C80.8604 58.5518 80.5538 58.6264 80.2853 58.7756C80.0202 58.9247 79.8097 59.1435 79.6539 59.4318C79.5015 59.7169 79.4252 60.0616 79.4252 60.4659ZM89.5225 65.1541C88.8066 65.1541 88.1819 64.9901 87.6483 64.6619C87.1146 64.3338 86.7003 63.8748 86.4054 63.2848C86.1104 62.6948 85.9629 62.0054 85.9629 61.2166C85.9629 60.4245 86.1104 59.7318 86.4054 59.1385C86.7003 58.5452 87.1146 58.0845 87.6483 57.7564C88.1819 57.4283 88.8066 57.2642 89.5225 57.2642C90.2385 57.2642 90.8632 57.4283 91.3968 57.7564C91.9305 58.0845 92.3448 58.5452 92.6397 59.1385C92.9347 59.7318 93.0822 60.4245 93.0822 61.2166C93.0822 62.0054 92.9347 62.6948 92.6397 63.2848C92.3448 63.8748 91.9305 64.3338 91.3968 64.6619C90.8632 64.9901 90.2385 65.1541 89.5225 65.1541ZM89.5275 63.9062C89.9915 63.9062 90.376 63.7836 90.6809 63.5384C90.9859 63.2931 91.2112 62.9666 91.3571 62.5589C91.5062 62.1513 91.5808 61.7022 91.5808 61.2116C91.5808 60.7244 91.5062 60.277 91.3571 59.8693C91.2112 59.4583 90.9859 59.1286 90.6809 58.88C90.376 58.6314 89.9915 58.5071 89.5275 58.5071C89.0602 58.5071 88.6724 58.6314 88.3642 58.88C88.0592 59.1286 87.8322 59.4583 87.6831 59.8693C87.5372 60.277 87.4643 60.7244 87.4643 61.2116C87.4643 61.7022 87.5372 62.1513 87.6831 62.5589C87.8322 62.9666 88.0592 63.2931 88.3642 63.5384C88.6724 63.7836 89.0602 63.9062 89.5275 63.9062ZM95.4213 67.8636C95.1993 67.8636 94.9971 67.8454 94.8148 67.8089C94.6325 67.7758 94.4966 67.7393 94.4071 67.6996L94.7651 66.4815C95.0369 66.5545 95.2788 66.5859 95.4909 66.576C95.7031 66.5661 95.8903 66.4865 96.0527 66.3374C96.2185 66.1882 96.3643 65.9446 96.4902 65.6065L96.6742 65.0994L93.8801 57.3636H95.4711L97.405 63.2898H97.4846L99.4185 57.3636H101.014L97.8674 66.0192C97.7215 66.4169 97.5359 66.7533 97.3105 67.0284C97.0852 67.3068 96.8167 67.5156 96.5051 67.6548C96.1936 67.794 95.8323 67.8636 95.4213 67.8636ZM102.411 65V57.3636H103.838V58.6065H103.933C104.092 58.1856 104.352 57.8575 104.713 57.6222C105.075 57.3835 105.507 57.2642 106.011 57.2642C106.521 57.2642 106.949 57.3835 107.294 57.6222C107.642 57.8608 107.898 58.1889 108.064 58.6065H108.144C108.326 58.1989 108.616 57.8741 109.014 57.6321C109.411 57.3868 109.885 57.2642 110.436 57.2642C111.128 57.2642 111.693 57.4813 112.131 57.9155C112.572 58.3497 112.792 59.0043 112.792 59.8793V65H111.306V60.0185C111.306 59.5014 111.165 59.1269 110.883 58.8949C110.601 58.6629 110.265 58.5469 109.874 58.5469C109.39 58.5469 109.014 58.696 108.745 58.9943C108.477 59.2893 108.343 59.6688 108.343 60.1328V65H106.861V59.924C106.861 59.5097 106.732 59.1766 106.473 58.9247C106.215 58.6728 105.878 58.5469 105.464 58.5469C105.182 58.5469 104.922 58.6214 104.683 58.7706C104.448 58.9164 104.258 59.1203 104.112 59.3821C103.969 59.6439 103.898 59.9472 103.898 60.2919V65H102.411ZM120.507 59.228L119.159 59.4666C119.103 59.2943 119.014 59.1302 118.891 58.9744C118.772 58.8187 118.609 58.6911 118.404 58.5916C118.198 58.4922 117.941 58.4425 117.633 58.4425C117.212 58.4425 116.861 58.5369 116.579 58.7259C116.297 58.9115 116.157 59.1518 116.157 59.4467C116.157 59.7019 116.251 59.9074 116.44 60.0632C116.629 60.219 116.934 60.3466 117.355 60.446L118.568 60.7244C119.27 60.8868 119.794 61.1371 120.139 61.4751C120.484 61.8132 120.656 62.2524 120.656 62.7926C120.656 63.25 120.523 63.6577 120.258 64.0156C119.996 64.3703 119.63 64.6487 119.159 64.8509C118.692 65.053 118.15 65.1541 117.534 65.1541C116.679 65.1541 115.981 64.9718 115.441 64.6072C114.9 64.2393 114.569 63.7173 114.446 63.0412L115.883 62.8224C115.973 63.197 116.157 63.4804 116.435 63.6726C116.713 63.8615 117.076 63.956 117.524 63.956C118.011 63.956 118.4 63.8549 118.692 63.6527C118.984 63.4472 119.13 63.197 119.13 62.902C119.13 62.6634 119.04 62.4628 118.861 62.3004C118.685 62.138 118.415 62.0154 118.051 61.9325L116.758 61.6491C116.046 61.4867 115.519 61.2282 115.177 60.8736C114.839 60.5189 114.67 60.0698 114.67 59.5263C114.67 59.0755 114.796 58.6811 115.048 58.343C115.3 58.005 115.648 57.7415 116.092 57.5526C116.536 57.3603 117.045 57.2642 117.618 57.2642C118.444 57.2642 119.093 57.4432 119.567 57.8011C120.041 58.1558 120.354 58.6314 120.507 59.228Z" fill="white"/>
<path d="M142.616 56.1406V54.8182H150.496V56.1406H147.32V65H145.788V56.1406H142.616ZM151.325 65V57.3636H152.762V58.5767H152.842C152.981 58.1657 153.226 57.8426 153.578 57.6072C153.932 57.3686 154.333 57.2493 154.781 57.2493C154.874 57.2493 154.983 57.2526 155.109 57.2592C155.238 57.2659 155.339 57.2741 155.412 57.2841V58.706C155.352 58.6894 155.246 58.6712 155.094 58.6513C154.941 58.6281 154.789 58.6165 154.637 58.6165C154.285 58.6165 153.972 58.6911 153.697 58.8402C153.425 58.986 153.21 59.1899 153.051 59.4517C152.892 59.7102 152.812 60.0052 152.812 60.3366V65H151.325ZM158.852 65.169C158.369 65.169 157.931 65.0795 157.54 64.9006C157.149 64.7183 156.839 64.4548 156.61 64.1101C156.385 63.7654 156.272 63.3428 156.272 62.8423C156.272 62.4115 156.355 62.0568 156.521 61.7784C156.686 61.5 156.91 61.2796 157.192 61.1172C157.474 60.9548 157.789 60.8321 158.137 60.7493C158.485 60.6664 158.839 60.6035 159.2 60.5604C159.658 60.5073 160.029 60.4643 160.314 60.4311C160.599 60.3946 160.806 60.3366 160.936 60.2571C161.065 60.1776 161.129 60.0483 161.129 59.8693V59.8345C161.129 59.4003 161.007 59.0639 160.762 58.8253C160.52 58.5866 160.158 58.4673 159.678 58.4673C159.177 58.4673 158.783 58.5784 158.494 58.8004C158.209 59.0192 158.012 59.2628 157.903 59.5312L156.506 59.2131C156.672 58.7491 156.914 58.3745 157.232 58.0895C157.553 57.8011 157.923 57.5923 158.34 57.4631C158.758 57.3305 159.197 57.2642 159.658 57.2642C159.963 57.2642 160.286 57.3007 160.627 57.3736C160.972 57.4432 161.294 57.5724 161.592 57.7614C161.893 57.9503 162.14 58.2204 162.333 58.5717C162.525 58.9197 162.621 59.3722 162.621 59.929V65H161.169V63.956H161.11C161.013 64.1482 160.869 64.3371 160.677 64.5227C160.485 64.7083 160.238 64.8625 159.936 64.9851C159.635 65.1077 159.273 65.169 158.852 65.169ZM159.176 63.9759C159.587 63.9759 159.938 63.8946 160.23 63.7322C160.525 63.5698 160.748 63.3577 160.901 63.0959C161.057 62.8307 161.134 62.5473 161.134 62.2457V61.2614C161.081 61.3144 160.979 61.3641 160.826 61.4105C160.677 61.4536 160.506 61.4917 160.314 61.5249C160.122 61.5547 159.935 61.5829 159.752 61.6094C159.57 61.6326 159.418 61.6525 159.295 61.669C159.007 61.7055 158.743 61.7668 158.504 61.853C158.269 61.9392 158.08 62.0634 157.938 62.2259C157.798 62.3849 157.729 62.5971 157.729 62.8622C157.729 63.2301 157.865 63.5085 158.137 63.6974C158.408 63.883 158.755 63.9759 159.176 63.9759ZM166.087 60.4659V65H164.601V57.3636H166.028V58.6065H166.122C166.298 58.2022 166.573 57.8774 166.947 57.6321C167.325 57.3868 167.801 57.2642 168.374 57.2642C168.895 57.2642 169.35 57.3736 169.741 57.5923C170.133 57.8078 170.436 58.1293 170.651 58.5568C170.867 58.9844 170.974 59.513 170.974 60.1428V65H169.488V60.3217C169.488 59.7682 169.344 59.3357 169.055 59.0241C168.767 58.7093 168.371 58.5518 167.867 58.5518C167.522 58.5518 167.216 58.6264 166.947 58.7756C166.682 58.9247 166.472 59.1435 166.316 59.4318C166.164 59.7169 166.087 60.0616 166.087 60.4659ZM178.69 59.228L177.343 59.4666C177.287 59.2943 177.197 59.1302 177.075 58.9744C176.955 58.8187 176.793 58.6911 176.587 58.5916C176.382 58.4922 176.125 58.4425 175.817 58.4425C175.396 58.4425 175.045 58.5369 174.763 58.7259C174.481 58.9115 174.34 59.1518 174.34 59.4467C174.34 59.7019 174.435 59.9074 174.624 60.0632C174.813 60.219 175.117 60.3466 175.538 60.446L176.751 60.7244C177.454 60.8868 177.978 61.1371 178.322 61.4751C178.667 61.8132 178.839 62.2524 178.839 62.7926C178.839 63.25 178.707 63.6577 178.442 64.0156C178.18 64.3703 177.814 64.6487 177.343 64.8509C176.876 65.053 176.334 65.1541 175.717 65.1541C174.862 65.1541 174.165 64.9718 173.624 64.6072C173.084 64.2393 172.753 63.7173 172.63 63.0412L174.067 62.8224C174.156 63.197 174.34 63.4804 174.619 63.6726C174.897 63.8615 175.26 63.956 175.707 63.956C176.195 63.956 176.584 63.8549 176.876 63.6527C177.167 63.4472 177.313 63.197 177.313 62.902C177.313 62.6634 177.224 62.4628 177.045 62.3004C176.869 62.138 176.599 62.0154 176.234 61.9325L174.942 61.6491C174.229 61.4867 173.702 61.2282 173.361 60.8736C173.023 60.5189 172.854 60.0698 172.854 59.5263C172.854 59.0755 172.98 58.6811 173.232 58.343C173.483 58.005 173.831 57.7415 174.276 57.5526C174.72 57.3603 175.228 57.2642 175.802 57.2642C176.627 57.2642 177.277 57.4432 177.751 57.8011C178.225 58.1558 178.538 58.6314 178.69 59.228ZM181.96 54.8182V65H180.474V54.8182H181.96ZM186.183 65.169C185.699 65.169 185.261 65.0795 184.87 64.9006C184.479 64.7183 184.169 64.4548 183.94 64.1101C183.715 63.7654 183.602 63.3428 183.602 62.8423C183.602 62.4115 183.685 62.0568 183.851 61.7784C184.017 61.5 184.24 61.2796 184.522 61.1172C184.804 60.9548 185.119 60.8321 185.467 60.7493C185.815 60.6664 186.169 60.6035 186.531 60.5604C186.988 60.5073 187.359 60.4643 187.644 60.4311C187.929 60.3946 188.136 60.3366 188.266 60.2571C188.395 60.1776 188.46 60.0483 188.46 59.8693V59.8345C188.46 59.4003 188.337 59.0639 188.092 58.8253C187.85 58.5866 187.488 58.4673 187.008 58.4673C186.507 58.4673 186.113 58.5784 185.825 58.8004C185.54 59.0192 185.342 59.2628 185.233 59.5312L183.836 59.2131C184.002 58.7491 184.244 58.3745 184.562 58.0895C184.883 57.8011 185.253 57.5923 185.67 57.4631C186.088 57.3305 186.527 57.2642 186.988 57.2642C187.293 57.2642 187.616 57.3007 187.957 57.3736C188.302 57.4432 188.624 57.5724 188.922 57.7614C189.223 57.9503 189.47 58.2204 189.663 58.5717C189.855 58.9197 189.951 59.3722 189.951 59.929V65H188.499V63.956H188.44C188.344 64.1482 188.199 64.3371 188.007 64.5227C187.815 64.7083 187.568 64.8625 187.266 64.9851C186.965 65.1077 186.603 65.169 186.183 65.169ZM186.506 63.9759C186.917 63.9759 187.268 63.8946 187.56 63.7322C187.855 63.5698 188.078 63.3577 188.231 63.0959C188.387 62.8307 188.464 62.5473 188.464 62.2457V61.2614C188.411 61.3144 188.309 61.3641 188.156 61.4105C188.007 61.4536 187.836 61.4917 187.644 61.5249C187.452 61.5547 187.265 61.5829 187.082 61.6094C186.9 61.6326 186.748 61.6525 186.625 61.669C186.337 61.7055 186.073 61.7668 185.835 61.853C185.599 61.9392 185.41 62.0634 185.268 62.2259C185.129 62.3849 185.059 62.5971 185.059 62.8622C185.059 63.2301 185.195 63.5085 185.467 63.6974C185.738 63.883 186.085 63.9759 186.506 63.9759ZM195.496 57.3636V58.5568H191.324V57.3636H195.496ZM192.443 55.5341H193.93V62.7578C193.93 63.0462 193.973 63.2633 194.059 63.4091C194.145 63.5516 194.256 63.6494 194.392 63.7024C194.531 63.7521 194.682 63.777 194.844 63.777C194.964 63.777 195.068 63.7687 195.157 63.7521C195.247 63.7356 195.317 63.7223 195.366 63.7124L195.635 64.9403C195.549 64.9735 195.426 65.0066 195.267 65.0398C195.108 65.0762 194.909 65.0961 194.67 65.0994C194.279 65.1061 193.915 65.0365 193.577 64.8906C193.238 64.7448 192.965 64.5194 192.756 64.2145C192.547 63.9096 192.443 63.5268 192.443 63.0661V55.5341ZM200.349 65.1541C199.597 65.1541 198.949 64.9934 198.405 64.6719C197.865 64.3471 197.447 63.8913 197.152 63.3047C196.861 62.7147 196.715 62.0237 196.715 61.2315C196.715 60.4493 196.861 59.7599 197.152 59.1634C197.447 58.5668 197.858 58.1011 198.385 57.7663C198.916 57.4316 199.535 57.2642 200.245 57.2642C200.676 57.2642 201.093 57.3355 201.498 57.478C201.902 57.6205 202.265 57.8442 202.586 58.1491C202.908 58.4541 203.161 58.8501 203.347 59.3374C203.533 59.8213 203.625 60.4096 203.625 61.1023V61.6293H197.555V60.5156H202.169C202.169 60.1245 202.089 59.7782 201.93 59.4766C201.771 59.1716 201.547 58.9313 201.259 58.7557C200.974 58.58 200.639 58.4922 200.255 58.4922C199.837 58.4922 199.472 58.5949 199.161 58.8004C198.853 59.0026 198.614 59.2678 198.445 59.5959C198.279 59.9207 198.196 60.2737 198.196 60.6548V61.5249C198.196 62.0353 198.286 62.4695 198.465 62.8274C198.647 63.1854 198.901 63.4588 199.225 63.6477C199.55 63.8333 199.93 63.9261 200.364 63.9261C200.646 63.9261 200.903 63.8864 201.135 63.8068C201.367 63.724 201.567 63.6013 201.736 63.4389C201.905 63.2765 202.034 63.076 202.124 62.8374L203.531 63.0909C203.418 63.5052 203.216 63.8681 202.924 64.1797C202.636 64.4879 202.273 64.7282 201.836 64.9006C201.401 65.0696 200.906 65.1541 200.349 65.1541Z" fill="white"/>
<path d="M233.009 58.0348C232.913 57.7332 232.784 57.4631 232.621 57.2244C232.462 56.9825 232.272 56.777 232.05 56.608C231.828 56.4356 231.574 56.3047 231.289 56.2152C231.007 56.1257 230.697 56.081 230.359 56.081C229.786 56.081 229.269 56.2285 228.808 56.5234C228.348 56.8184 227.983 57.2509 227.714 57.821C227.449 58.3878 227.317 59.0821 227.317 59.9041C227.317 60.7294 227.451 61.4271 227.719 61.9972C227.988 62.5672 228.356 62.9998 228.823 63.2947C229.29 63.5897 229.822 63.7372 230.419 63.7372C230.973 63.7372 231.455 63.6245 231.866 63.3991C232.28 63.1738 232.6 62.8556 232.825 62.4446C233.054 62.0303 233.168 61.5431 233.168 60.983L233.566 61.0575H230.653V59.7898H234.655V60.9482C234.655 61.8033 234.473 62.5457 234.108 63.1754C233.747 63.8018 233.246 64.2857 232.607 64.6271C231.97 64.9685 231.241 65.1392 230.419 65.1392C229.498 65.1392 228.689 64.9271 227.993 64.5028C227.3 64.0786 226.76 63.477 226.372 62.6982C225.984 61.916 225.79 60.9879 225.79 59.9141C225.79 59.102 225.903 58.3729 226.129 57.7266C226.354 57.0803 226.67 56.5317 227.078 56.081C227.489 55.6269 227.971 55.2805 228.525 55.0419C229.082 54.8 229.69 54.679 230.349 54.679C230.9 54.679 231.412 54.7602 231.886 54.9226C232.363 55.085 232.787 55.3153 233.158 55.6136C233.533 55.9119 233.843 56.2666 234.088 56.6776C234.333 57.0852 234.499 57.5376 234.585 58.0348H233.009ZM236.486 65V57.3636H237.922V58.5767H238.002C238.141 58.1657 238.386 57.8426 238.738 57.6072C239.092 57.3686 239.493 57.2493 239.941 57.2493C240.034 57.2493 240.143 57.2526 240.269 57.2592C240.398 57.2659 240.499 57.2741 240.572 57.2841V58.706C240.513 58.6894 240.407 58.6712 240.254 58.6513C240.102 58.6281 239.949 58.6165 239.797 58.6165C239.445 58.6165 239.132 58.6911 238.857 58.8402C238.585 58.986 238.37 59.1899 238.211 59.4517C238.052 59.7102 237.972 60.0052 237.972 60.3366V65H236.486ZM244.013 65.169C243.529 65.169 243.091 65.0795 242.7 64.9006C242.309 64.7183 241.999 64.4548 241.77 64.1101C241.545 63.7654 241.432 63.3428 241.432 62.8423C241.432 62.4115 241.515 62.0568 241.681 61.7784C241.847 61.5 242.07 61.2796 242.352 61.1172C242.634 60.9548 242.949 60.8321 243.297 60.7493C243.645 60.6664 243.999 60.6035 244.361 60.5604C244.818 60.5073 245.189 60.4643 245.474 60.4311C245.759 60.3946 245.966 60.3366 246.096 60.2571C246.225 60.1776 246.29 60.0483 246.29 59.8693V59.8345C246.29 59.4003 246.167 59.0639 245.922 58.8253C245.68 58.5866 245.318 58.4673 244.838 58.4673C244.337 58.4673 243.943 58.5784 243.655 58.8004C243.37 59.0192 243.172 59.2628 243.063 59.5312L241.666 59.2131C241.832 58.7491 242.074 58.3745 242.392 58.0895C242.713 57.8011 243.083 57.5923 243.501 57.4631C243.918 57.3305 244.357 57.2642 244.818 57.2642C245.123 57.2642 245.446 57.3007 245.787 57.3736C246.132 57.4432 246.454 57.5724 246.752 57.7614C247.054 57.9503 247.3 58.2204 247.493 58.5717C247.685 58.9197 247.781 59.3722 247.781 59.929V65H246.329V63.956H246.27C246.174 64.1482 246.029 64.3371 245.837 64.5227C245.645 64.7083 245.398 64.8625 245.096 64.9851C244.795 65.1077 244.434 65.169 244.013 65.169ZM244.336 63.9759C244.747 63.9759 245.098 63.8946 245.39 63.7322C245.685 63.5698 245.908 63.3577 246.061 63.0959C246.217 62.8307 246.295 62.5473 246.295 62.2457V61.2614C246.242 61.3144 246.139 61.3641 245.986 61.4105C245.837 61.4536 245.666 61.4917 245.474 61.5249C245.282 61.5547 245.095 61.5829 244.912 61.6094C244.73 61.6326 244.578 61.6525 244.455 61.669C244.167 61.7055 243.903 61.7668 243.665 61.853C243.429 61.9392 243.24 62.0634 243.098 62.2259C242.959 62.3849 242.889 62.5971 242.889 62.8622C242.889 63.2301 243.025 63.5085 243.297 63.6974C243.568 63.883 243.915 63.9759 244.336 63.9759ZM249.761 65V57.3636H251.188V58.6065H251.282C251.441 58.1856 251.702 57.8575 252.063 57.6222C252.424 57.3835 252.857 57.2642 253.36 57.2642C253.871 57.2642 254.298 57.3835 254.643 57.6222C254.991 57.8608 255.248 58.1889 255.414 58.6065H255.493C255.676 58.1989 255.966 57.8741 256.363 57.6321C256.761 57.3868 257.235 57.2642 257.785 57.2642C258.478 57.2642 259.043 57.4813 259.48 57.9155C259.921 58.3497 260.142 59.0043 260.142 59.8793V65H258.655V60.0185C258.655 59.5014 258.514 59.1269 258.233 58.8949C257.951 58.6629 257.614 58.5469 257.223 58.5469C256.739 58.5469 256.363 58.696 256.095 58.9943C255.826 59.2893 255.692 59.6688 255.692 60.1328V65H254.211V59.924C254.211 59.5097 254.081 59.1766 253.823 58.9247C253.564 58.6728 253.228 58.5469 252.814 58.5469C252.532 58.5469 252.272 58.6214 252.033 58.7706C251.798 58.9164 251.607 59.1203 251.461 59.3821C251.319 59.6439 251.248 59.9472 251.248 60.2919V65H249.761ZM262.134 65V57.3636H263.561V58.6065H263.655C263.814 58.1856 264.075 57.8575 264.436 57.6222C264.797 57.3835 265.23 57.2642 265.733 57.2642C266.244 57.2642 266.671 57.3835 267.016 57.6222C267.364 57.8608 267.621 58.1889 267.787 58.6065H267.866C268.049 58.1989 268.339 57.8741 268.736 57.6321C269.134 57.3868 269.608 57.2642 270.158 57.2642C270.851 57.2642 271.416 57.4813 271.854 57.9155C272.294 58.3497 272.515 59.0043 272.515 59.8793V65H271.028V60.0185C271.028 59.5014 270.887 59.1269 270.606 58.8949C270.324 58.6629 269.988 58.5469 269.596 58.5469C269.113 58.5469 268.736 58.696 268.468 58.9943C268.199 59.2893 268.065 59.6688 268.065 60.1328V65H266.584V59.924C266.584 59.5097 266.454 59.1766 266.196 58.9247C265.937 58.6728 265.601 58.5469 265.187 58.5469C264.905 58.5469 264.645 58.6214 264.406 58.7706C264.171 58.9164 263.98 59.1203 263.834 59.3821C263.692 59.6439 263.621 59.9472 263.621 60.2919V65H262.134ZM276.729 65.169C276.246 65.169 275.808 65.0795 275.417 64.9006C275.026 64.7183 274.716 64.4548 274.487 64.1101C274.262 63.7654 274.149 63.3428 274.149 62.8423C274.149 62.4115 274.232 62.0568 274.398 61.7784C274.563 61.5 274.787 61.2796 275.069 61.1172C275.351 60.9548 275.665 60.8321 276.013 60.7493C276.362 60.6664 276.716 60.6035 277.077 60.5604C277.535 60.5073 277.906 60.4643 278.191 60.4311C278.476 60.3946 278.683 60.3366 278.812 60.2571C278.942 60.1776 279.006 60.0483 279.006 59.8693V59.8345C279.006 59.4003 278.884 59.0639 278.638 58.8253C278.397 58.5866 278.035 58.4673 277.555 58.4673C277.054 58.4673 276.66 58.5784 276.371 58.8004C276.086 59.0192 275.889 59.2628 275.78 59.5312L274.383 59.2131C274.549 58.7491 274.79 58.3745 275.109 58.0895C275.43 57.8011 275.8 57.5923 276.217 57.4631C276.635 57.3305 277.074 57.2642 277.535 57.2642C277.84 57.2642 278.163 57.3007 278.504 57.3736C278.849 57.4432 279.17 57.5724 279.469 57.7614C279.77 57.9503 280.017 58.2204 280.21 58.5717C280.402 58.9197 280.498 59.3722 280.498 59.929V65H279.046V63.956H278.987C278.89 64.1482 278.746 64.3371 278.554 64.5227C278.362 64.7083 278.115 64.8625 277.813 64.9851C277.512 65.1077 277.15 65.169 276.729 65.169ZM277.053 63.9759C277.464 63.9759 277.815 63.8946 278.107 63.7322C278.402 63.5698 278.625 63.3577 278.778 63.0959C278.933 62.8307 279.011 62.5473 279.011 62.2457V61.2614C278.958 61.3144 278.856 61.3641 278.703 61.4105C278.554 61.4536 278.383 61.4917 278.191 61.5249C277.999 61.5547 277.812 61.5829 277.629 61.6094C277.447 61.6326 277.295 61.6525 277.172 61.669C276.884 61.7055 276.62 61.7668 276.381 61.853C276.146 61.9392 275.957 62.0634 275.815 62.2259C275.675 62.3849 275.606 62.5971 275.606 62.8622C275.606 63.2301 275.742 63.5085 276.013 63.6974C276.285 63.883 276.632 63.9759 277.053 63.9759ZM282.478 65V57.3636H283.915V58.5767H283.994C284.133 58.1657 284.379 57.8426 284.73 57.6072C285.085 57.3686 285.486 57.2493 285.933 57.2493C286.026 57.2493 286.135 57.2526 286.261 57.2592C286.39 57.2659 286.492 57.2741 286.564 57.2841V58.706C286.505 58.6894 286.399 58.6712 286.246 58.6513C286.094 58.6281 285.941 58.6165 285.789 58.6165C285.438 58.6165 285.124 58.6911 284.849 58.8402C284.577 58.986 284.362 59.1899 284.203 59.4517C284.044 59.7102 283.964 60.0052 283.964 60.3366V65H282.478Z" fill="white"/>
<line x1="132.5" y1="50" x2="132.5" y2="70" stroke="white" stroke-opacity="0.3" stroke-dasharray="4 4"/>
<line x1="215.5" y1="50" x2="215.5" y2="70" stroke="white" stroke-opacity="0.3" stroke-dasharray="4 4"/>
<defs>
<filter id="filter0_d_1031_5909" x="0" y="0" width="347" height="120" filterUnits="userSpaceOnUse" color-interpolation-filters="sRGB">
<feFlood flood-opacity="0" result="BackgroundImageFix"/>
<feColorMatrix in="SourceAlpha" type="matrix" values="0 0 0 0 0 0 0 0 0 0 0 0 0 0 0 0 0 0 127 0" result="hardAlpha"/>
<feOffset/>
<feGaussianBlur stdDeviation="20"/>
<feComposite in2="hardAlpha" operator="out"/>
<feColorMatrix type="matrix" values="0 0 0 0 0 0 0 0 0 0 0 0 0 0 0 0 0 0 0.16 0"/>
<feBlend mode="normal" in2="BackgroundImageFix" result="effect1_dropShadow_1031_5909"/>
<feBlend mode="normal" in="SourceGraphic" in2="effect1_dropShadow_1031_5909" result="shape"/>
</filter>
</defs>
</svg>
