<svg width="26" height="26" viewBox="0 0 26 26" fill="none" xmlns="http://www.w3.org/2000/svg">
<path d="M13.0016 24.6458C12.5249 24.6458 12.0374 24.5808 11.6474 24.4508L8.19158 23.3024C6.55574 22.7608 5.26658 20.9733 5.27741 19.2508L5.28825 14.1699C5.28825 13.7258 5.65658 13.3574 6.10075 13.3574C6.54491 13.3574 6.91325 13.7258 6.91325 14.1699L6.90241 19.2508C6.90241 20.2691 7.74741 21.4391 8.71158 21.7641L12.1674 22.9124C12.6007 23.0533 13.4024 23.0533 13.8357 22.9124L17.2916 21.7641C18.2557 21.4391 19.1007 20.2691 19.1007 19.2616V14.2349C19.1007 13.7908 19.4691 13.4224 19.9132 13.4224C20.3574 13.4224 20.7257 13.7908 20.7257 14.2349V19.2616C20.7257 20.9841 19.4474 22.7608 17.8116 23.3133L14.3557 24.4616C13.9657 24.5808 13.4782 24.6458 13.0016 24.6458Z" fill="#1B48BB"/>
<path d="M13.0118 18.4169C12.091 18.4169 11.1593 18.1786 10.4335 17.7127L3.91182 13.4552C2.69849 12.6644 1.97266 11.3319 1.97266 9.88022C1.97266 8.42855 2.69849 7.09605 3.91182 6.30522L10.4443 2.05855C11.896 1.11605 14.1602 1.11605 15.601 2.06939L22.0902 6.32689C23.2927 7.11772 24.0185 8.45022 24.0185 9.89105C24.0185 11.3319 23.2927 12.6644 22.0902 13.4552L15.601 17.7127C14.8752 18.1894 13.9435 18.4169 13.0118 18.4169ZM13.0118 2.97939C12.3943 2.97939 11.7768 3.12022 11.3327 3.42355L4.81099 7.67022C4.05266 8.16855 3.60849 8.97022 3.60849 9.88022C3.60849 10.7902 4.04182 11.5919 4.81099 12.0902L11.3327 16.3477C12.2318 16.9327 13.8135 16.9327 14.7127 16.3477L21.2018 12.0902C21.9602 11.5919 22.3935 10.7902 22.3935 9.88022C22.3935 8.97022 21.9602 8.16855 21.2018 7.67022L14.7127 3.41272C14.2577 3.13105 13.6402 2.97939 13.0118 2.97939Z" fill="#0099FF"/>
<path d="M23.1836 17.0625C22.7394 17.0625 22.3711 16.6942 22.3711 16.25V9.75C22.3711 9.30583 22.7394 8.9375 23.1836 8.9375C23.6278 8.9375 23.9961 9.30583 23.9961 9.75V16.25C23.9961 16.6942 23.6278 17.0625 23.1836 17.0625Z" fill="#0099FF"/>
</svg>
