<svg width="251" height="120" viewBox="0 0 251 120" fill="none" xmlns="http://www.w3.org/2000/svg">
<g filter="url(#filter0_d_1031_5916)">
<rect x="40" y="40" width="171" height="40" rx="10" fill="#2F2F2F"/>
</g>
<path d="M60.8849 65V54.8182H64.9616C65.7107 54.8182 66.3355 54.9292 66.8359 55.1513C67.3364 55.3733 67.7126 55.6816 67.9645 56.076C68.2164 56.4671 68.3423 56.9179 68.3423 57.4283C68.3423 57.826 68.2628 58.1757 68.1037 58.4773C67.9446 58.7756 67.7259 59.0208 67.4474 59.2131C67.1723 59.402 66.8575 59.5362 66.5028 59.6158V59.7152C66.8906 59.7318 67.2536 59.8411 67.5916 60.0433C67.933 60.2455 68.2098 60.5289 68.4219 60.8935C68.634 61.2547 68.7401 61.6856 68.7401 62.1861C68.7401 62.7263 68.6058 63.2086 68.3374 63.6328C68.0722 64.0537 67.6795 64.3868 67.1591 64.6321C66.6387 64.8774 65.9974 65 65.2351 65H60.8849ZM63.0376 63.2401H64.7926C65.3925 63.2401 65.83 63.1257 66.1051 62.897C66.3802 62.665 66.5178 62.3568 66.5178 61.9723C66.5178 61.6906 66.4498 61.442 66.3139 61.2266C66.178 61.0111 65.9841 60.8421 65.7322 60.7195C65.4837 60.5968 65.187 60.5355 64.8423 60.5355H63.0376V63.2401ZM63.0376 59.0788H64.6335C64.9285 59.0788 65.1903 59.0275 65.419 58.9247C65.651 58.8187 65.8333 58.6695 65.9659 58.4773C66.1018 58.285 66.1697 58.0547 66.1697 57.7862C66.1697 57.4183 66.0388 57.1217 65.777 56.8963C65.5185 56.6709 65.1506 56.5582 64.6733 56.5582H63.0376V59.0788ZM73.5513 65.1491C72.7791 65.1491 72.1112 64.9851 71.5478 64.657C70.9876 64.3255 70.5551 63.8648 70.2502 63.2749C69.9453 62.6816 69.7928 61.9938 69.7928 61.2116C69.7928 60.4228 69.9453 59.7334 70.2502 59.1435C70.5551 58.5502 70.9876 58.0895 71.5478 57.7614C72.1112 57.4299 72.7791 57.2642 73.5513 57.2642C74.3236 57.2642 74.9898 57.4299 75.5499 57.7614C76.1133 58.0895 76.5475 58.5502 76.8525 59.1435C77.1574 59.7334 77.3098 60.4228 77.3098 61.2116C77.3098 61.9938 77.1574 62.6816 76.8525 63.2749C76.5475 63.8648 76.1133 64.3255 75.5499 64.657C74.9898 64.9851 74.3236 65.1491 73.5513 65.1491ZM73.5613 63.5085C73.9126 63.5085 74.2059 63.4091 74.4412 63.2102C74.6766 63.008 74.8539 62.733 74.9732 62.3849C75.0958 62.0369 75.1571 61.6409 75.1571 61.1967C75.1571 60.7526 75.0958 60.3565 74.9732 60.0085C74.8539 59.6605 74.6766 59.3854 74.4412 59.1832C74.2059 58.9811 73.9126 58.88 73.5613 58.88C73.2066 58.88 72.9083 58.9811 72.6664 59.1832C72.4277 59.3854 72.2471 59.6605 72.1245 60.0085C72.0051 60.3565 71.9455 60.7526 71.9455 61.1967C71.9455 61.6409 72.0051 62.0369 72.1245 62.3849C72.2471 62.733 72.4277 63.008 72.6664 63.2102C72.9083 63.4091 73.2066 63.5085 73.5613 63.5085ZM80.8049 54.8182V65H78.687V54.8182H80.8049ZM85.3153 65.1243C84.7353 65.1243 84.21 64.9751 83.7393 64.6768C83.272 64.3752 82.9008 63.9328 82.6257 63.3494C82.3539 62.7628 82.218 62.0436 82.218 61.1918C82.218 60.3168 82.3589 59.5893 82.6406 59.0092C82.9223 58.4259 83.2969 57.9901 83.7642 57.7017C84.2348 57.41 84.7502 57.2642 85.3104 57.2642C85.7379 57.2642 86.0942 57.3371 86.3793 57.483C86.6676 57.6255 86.8996 57.8045 87.0753 58.0199C87.2543 58.232 87.3902 58.4408 87.483 58.6463H87.5476V54.8182H89.6605V65H87.5724V63.777H87.483C87.3835 63.9891 87.2427 64.1996 87.0604 64.4084C86.8814 64.6139 86.6477 64.7846 86.3594 64.9205C86.0743 65.0563 85.7263 65.1243 85.3153 65.1243ZM85.9865 63.4389C86.3279 63.4389 86.6162 63.3461 86.8516 63.1605C87.0902 62.9716 87.2725 62.7081 87.3984 62.37C87.5277 62.032 87.5923 61.6359 87.5923 61.1818C87.5923 60.7277 87.5294 60.3333 87.4034 59.9986C87.2775 59.6638 87.0952 59.4053 86.8565 59.223C86.6179 59.0407 86.3279 58.9496 85.9865 58.9496C85.6385 58.9496 85.3452 59.044 85.1065 59.233C84.8679 59.4219 84.6873 59.6837 84.5646 60.0185C84.442 60.3532 84.3807 60.741 84.3807 61.1818C84.3807 61.6259 84.442 62.0187 84.5646 62.3601C84.6906 62.6982 84.8712 62.9633 85.1065 63.1555C85.3452 63.3445 85.6385 63.4389 85.9865 63.4389Z" fill="white"/>
<path d="M111.363 65L112.636 57.3636H114.122L112.849 65H111.363ZM113.69 56.1705C113.431 56.1705 113.212 56.0843 113.033 55.9119C112.858 55.7363 112.777 55.5275 112.79 55.2855C112.803 55.0402 112.906 54.8314 113.098 54.6591C113.29 54.4834 113.514 54.3956 113.769 54.3956C114.028 54.3956 114.245 54.4834 114.42 54.6591C114.596 54.8314 114.679 55.0402 114.669 55.2855C114.656 55.5275 114.553 55.7363 114.361 55.9119C114.172 56.0843 113.948 56.1705 113.69 56.1705ZM119.687 57.3636L119.493 58.5568H115.322L115.515 57.3636H119.687ZM116.932 55.5341H118.419L117.216 62.7578C117.169 63.0462 117.178 63.2633 117.241 63.4091C117.304 63.5516 117.4 63.6494 117.529 63.7024C117.662 63.7521 117.809 63.777 117.971 63.777C118.091 63.777 118.195 63.7687 118.285 63.7521C118.374 63.7356 118.445 63.7223 118.498 63.7124L118.578 64.9403C118.479 64.9735 118.344 65.0066 118.175 65.0398C118.01 65.0762 117.807 65.0961 117.569 65.0994C117.178 65.1061 116.825 65.0365 116.51 64.8906C116.195 64.7415 115.96 64.5161 115.804 64.2145C115.648 63.9096 115.61 63.5268 115.689 63.0661L116.932 55.5341ZM122.261 65.169C121.777 65.169 121.354 65.0795 120.993 64.9006C120.632 64.7183 120.365 64.4548 120.192 64.1101C120.02 63.7654 119.975 63.3428 120.058 62.8423C120.131 62.4115 120.274 62.0568 120.486 61.7784C120.701 61.5 120.963 61.2796 121.271 61.1172C121.58 60.9515 121.914 60.8272 122.276 60.7443C122.637 60.6615 123.001 60.6001 123.369 60.5604C123.833 60.5073 124.21 60.4626 124.498 60.4261C124.79 60.3897 125.008 60.3333 125.154 60.2571C125.3 60.1776 125.388 60.0483 125.418 59.8693V59.8345C125.487 59.4036 125.424 59.0689 125.229 58.8303C125.036 58.5883 124.702 58.4673 124.224 58.4673C123.727 58.4673 123.31 58.5767 122.972 58.7955C122.637 59.0142 122.39 59.2595 122.231 59.5312L120.898 59.2131C121.137 58.7491 121.44 58.3745 121.808 58.0895C122.179 57.8011 122.585 57.5923 123.026 57.4631C123.467 57.3305 123.918 57.2642 124.379 57.2642C124.683 57.2642 125 57.3007 125.328 57.3736C125.656 57.4432 125.955 57.5724 126.223 57.7614C126.495 57.9503 126.697 58.2204 126.83 58.5717C126.962 58.9197 126.982 59.3722 126.889 59.929L126.049 65H124.597L124.776 63.956H124.717C124.591 64.1482 124.415 64.3371 124.19 64.5227C123.968 64.7083 123.696 64.8625 123.374 64.9851C123.053 65.1077 122.682 65.169 122.261 65.169ZM122.768 63.9759C123.182 63.9759 123.548 63.8946 123.866 63.7322C124.188 63.5698 124.448 63.3577 124.647 63.0959C124.846 62.8307 124.97 62.5473 125.02 62.2457L125.184 61.2614C125.121 61.3144 125.01 61.3625 124.851 61.4055C124.695 61.4486 124.519 61.4867 124.324 61.5199C124.128 61.553 123.936 61.5812 123.747 61.6044C123.562 61.6276 123.407 61.6491 123.285 61.669C122.993 61.7055 122.72 61.7668 122.464 61.853C122.213 61.9392 122.002 62.0634 121.833 62.2259C121.664 62.3849 121.558 62.5971 121.515 62.8622C121.455 63.2301 121.543 63.5085 121.778 63.6974C122.017 63.883 122.347 63.9759 122.768 63.9759ZM131.206 54.8182L129.515 65H128.029L129.719 54.8182H131.206ZM131.515 65L132.788 57.3636H134.275L133.002 65H131.515ZM133.842 56.1705C133.583 56.1705 133.365 56.0843 133.186 55.9119C133.01 55.7363 132.929 55.5275 132.942 55.2855C132.955 55.0402 133.058 54.8314 133.25 54.6591C133.443 54.4834 133.666 54.3956 133.922 54.3956C134.18 54.3956 134.397 54.4834 134.573 54.6591C134.748 54.8314 134.831 55.0402 134.821 55.2855C134.808 55.5275 134.705 55.7363 134.513 55.9119C134.324 56.0843 134.1 56.1705 133.842 56.1705ZM138.198 65.1541C137.456 65.1541 136.848 64.9867 136.374 64.652C135.9 64.3139 135.57 63.8482 135.384 63.255C135.199 62.6617 135.169 61.9822 135.295 61.2166C135.421 60.4411 135.678 59.7566 136.066 59.1634C136.457 58.5668 136.945 58.1011 137.532 57.7663C138.122 57.4316 138.777 57.2642 139.496 57.2642C140.076 57.2642 140.575 57.3719 140.992 57.5874C141.41 57.7995 141.727 58.0978 141.942 58.4822C142.157 58.8667 142.25 59.3158 142.22 59.8295H140.774C140.75 59.4716 140.618 59.1634 140.376 58.9048C140.134 58.6463 139.778 58.517 139.307 58.517C138.893 58.517 138.512 58.6264 138.164 58.8452C137.816 59.0606 137.522 59.3688 137.284 59.7699C137.045 60.1676 136.883 60.6383 136.796 61.1818C136.704 61.7386 136.709 62.2192 136.811 62.6236C136.914 63.0279 137.103 63.3411 137.378 63.5632C137.653 63.7853 137.999 63.8963 138.417 63.8963C138.702 63.8963 138.967 63.8449 139.213 63.7422C139.461 63.6361 139.68 63.4853 139.869 63.2898C140.061 63.0942 140.21 62.8589 140.316 62.5838H141.768C141.625 63.0777 141.387 63.5185 141.052 63.9062C140.721 64.294 140.313 64.599 139.829 64.821C139.345 65.0431 138.802 65.1541 138.198 65.1541Z" fill="white"/>
<path d="M164.119 65V54.8182H165.655V63.6776H170.268V65H164.119ZM171.902 65V57.3636H173.388V65H171.902ZM172.652 56.1854C172.394 56.1854 172.172 56.0992 171.986 55.9268C171.804 55.7512 171.713 55.5424 171.713 55.3004C171.713 55.0552 171.804 54.8464 171.986 54.674C172.172 54.4983 172.394 54.4105 172.652 54.4105C172.911 54.4105 173.131 54.4983 173.314 54.674C173.499 54.8464 173.592 55.0552 173.592 55.3004C173.592 55.5424 173.499 55.7512 173.314 55.9268C173.131 56.0992 172.911 56.1854 172.652 56.1854ZM176.874 60.4659V65H175.388V57.3636H176.815V58.6065H176.909C177.085 58.2022 177.36 57.8774 177.735 57.6321C178.112 57.3868 178.588 57.2642 179.161 57.2642C179.682 57.2642 180.137 57.3736 180.529 57.5923C180.92 57.8078 181.223 58.1293 181.438 58.5568C181.654 58.9844 181.762 59.513 181.762 60.1428V65H180.275V60.3217C180.275 59.7682 180.131 59.3357 179.843 59.0241C179.554 58.7093 179.158 58.5518 178.654 58.5518C178.31 58.5518 178.003 58.6264 177.735 58.7756C177.469 58.9247 177.259 59.1435 177.103 59.4318C176.951 59.7169 176.874 60.0616 176.874 60.4659ZM185.122 62.4098L185.112 60.5952H185.371L188.414 57.3636H190.193L186.723 61.0426H186.49L185.122 62.4098ZM183.755 65V54.8182H185.242V65H183.755ZM188.578 65L185.843 61.3707L186.867 60.3317L190.402 65H188.578Z" fill="white"/>
<line x1="101.5" y1="50" x2="101.5" y2="70" stroke="white" stroke-opacity="0.3" stroke-dasharray="4 4"/>
<line x1="153.5" y1="50" x2="153.5" y2="70" stroke="white" stroke-opacity="0.3" stroke-dasharray="4 4"/>
<defs>
<filter id="filter0_d_1031_5916" x="0" y="0" width="251" height="120" filterUnits="userSpaceOnUse" color-interpolation-filters="sRGB">
<feFlood flood-opacity="0" result="BackgroundImageFix"/>
<feColorMatrix in="SourceAlpha" type="matrix" values="0 0 0 0 0 0 0 0 0 0 0 0 0 0 0 0 0 0 127 0" result="hardAlpha"/>
<feOffset/>
<feGaussianBlur stdDeviation="20"/>
<feComposite in2="hardAlpha" operator="out"/>
<feColorMatrix type="matrix" values="0 0 0 0 0 0 0 0 0 0 0 0 0 0 0 0 0 0 0.16 0"/>
<feBlend mode="normal" in2="BackgroundImageFix" result="effect1_dropShadow_1031_5916"/>
<feBlend mode="normal" in="SourceGraphic" in2="effect1_dropShadow_1031_5916" result="shape"/>
</filter>
</defs>
</svg>
