<svg width="345" height="397" viewBox="0 0 345 397" fill="none" xmlns="http://www.w3.org/2000/svg">
<path opacity="0.4" fill-rule="evenodd" clip-rule="evenodd" d="M38 1H-42C-46.9706 1 -51 5.02942 -51 10V90C-51 94.9706 -46.9706 99 -42 99H38C42.9706 99 47 94.9706 47 90V10C47 5.02942 42.9706 1 38 1ZM41.1311 99.5C44.1354 98.5104 46.5104 96.1354 47.5 93.1312C48.4896 96.1354 50.8646 98.5104 53.8689 99.5C50.8646 100.49 48.4896 102.865 47.5 105.869C46.5104 102.865 44.1354 100.49 41.1311 99.5ZM57 99H137C141.971 99 146 94.9706 146 90V10C146 5.02942 141.971 1 137 1H57C52.0294 1 48 5.02942 48 10V90C48 94.9706 52.0294 99 57 99ZM140.131 99.5C143.135 98.5104 145.51 96.1354 146.5 93.1312C147.49 96.1354 149.865 98.5104 152.869 99.5C149.865 100.49 147.49 102.865 146.5 105.869C145.51 102.865 143.135 100.49 140.131 99.5ZM156 99H236C240.971 99 245 94.9706 245 90V10C245 5.02942 240.971 1 236 1H156C151.029 1 147 5.02942 147 10V90C147 94.9706 151.029 99 156 99ZM239.131 99.5C242.135 98.5104 244.51 96.1354 245.5 93.1312C246.49 96.1354 248.865 98.5104 251.869 99.5C248.865 100.49 246.49 102.865 245.5 105.869C244.51 102.865 242.135 100.49 239.131 99.5ZM255 99H335C339.971 99 344 94.9706 344 90V10C344 5.02942 339.971 1 335 1H255C250.029 1 246 5.02942 246 10V90C246 94.9706 250.029 99 255 99ZM338.131 99.5C342.12 98.1859 345 94.4293 345 90V10C345 4.47717 340.523 0 335 0H255C250.571 0 246.814 2.87964 245.5 6.86884C244.186 2.87964 240.429 0 236 0H156C151.571 0 147.814 2.87964 146.5 6.86884C145.186 2.87964 141.429 0 137 0H57C52.5708 0 48.8141 2.87964 47.5 6.86884C46.1859 2.87964 42.4292 0 38 0H-42C-47.5228 0 -52 4.47717 -52 10V90C-52 94.4293 -49.1204 98.1859 -45.1311 99.5C-49.1204 100.814 -52 104.571 -52 109V189C-52 193.429 -49.1204 197.186 -45.1311 198.5C-49.1204 199.814 -52 203.571 -52 208V288C-52 292.429 -49.1204 296.186 -45.1311 297.5C-49.1204 298.814 -52 302.571 -52 307V387C-52 392.523 -47.5228 397 -42 397H38C42.4292 397 46.1859 394.12 47.5 390.131C48.8141 394.12 52.5708 397 57 397H137C141.429 397 145.186 394.12 146.5 390.131C147.814 394.12 151.571 397 156 397H236C240.429 397 244.186 394.12 245.5 390.131C246.814 394.12 250.571 397 255 397H335C340.523 397 345 392.523 345 387V307C345 302.571 342.12 298.814 338.131 297.5C342.12 296.186 345 292.429 345 288V208C345 203.571 342.12 199.814 338.131 198.5C342.12 197.186 345 193.429 345 189V109C345 104.571 342.12 100.814 338.131 99.5ZM-42 298C-46.9706 298 -51 302.029 -51 307V387C-51 391.971 -46.9706 396 -42 396H38C42.9706 396 47 391.971 47 387V307C47 302.029 42.9706 298 38 298H-42ZM41.1311 297.5C44.1354 298.49 46.5104 300.865 47.5 303.869C48.4896 300.865 50.8646 298.49 53.8689 297.5C50.8646 296.51 48.4896 294.135 47.5 291.131C46.5104 294.135 44.1354 296.51 41.1311 297.5ZM57 297H137C141.971 297 146 292.971 146 288V208C146 203.029 141.971 199 137 199H57C52.0294 199 48 203.029 48 208V288C48 292.971 52.0294 297 57 297ZM140.131 297.5C143.135 296.51 145.51 294.135 146.5 291.131C147.49 294.135 149.865 296.51 152.869 297.5C149.865 298.49 147.49 300.865 146.5 303.869C145.51 300.865 143.135 298.49 140.131 297.5ZM156 297H236C240.971 297 245 292.971 245 288V208C245 203.029 240.971 199 236 199H156C151.029 199 147 203.029 147 208V288C147 292.971 151.029 297 156 297ZM239.131 297.5C242.135 296.51 244.51 294.135 245.5 291.131C246.49 294.135 248.865 296.51 251.869 297.5C248.865 298.49 246.49 300.865 245.5 303.869C244.51 300.865 242.135 298.49 239.131 297.5ZM255 297H335C339.971 297 344 292.971 344 288V208C344 203.029 339.971 199 335 199H255C250.029 199 246 203.029 246 208V288C246 292.971 250.029 297 255 297ZM255 298C250.029 298 246 302.029 246 307V387C246 391.971 250.029 396 255 396H335C339.971 396 344 391.971 344 387V307C344 302.029 339.971 298 335 298H255ZM156 298C151.029 298 147 302.029 147 307V387C147 391.971 151.029 396 156 396H236C240.971 396 245 391.971 245 387V307C245 302.029 240.971 298 236 298H156ZM57 298C52.0294 298 48 302.029 48 307V387C48 391.971 52.0294 396 57 396H137C141.971 396 146 391.971 146 387V307C146 302.029 141.971 298 137 298H57ZM-51 208C-51 203.029 -46.9706 199 -42 199H38C42.9706 199 47 203.029 47 208V288C47 292.971 42.9706 297 38 297H-42C-46.9706 297 -51 292.971 -51 288V208ZM47.5 204.869C46.5104 201.865 44.1354 199.49 41.1311 198.5C44.1354 197.51 46.5104 195.135 47.5 192.131C48.4896 195.135 50.8646 197.51 53.8689 198.5C50.8646 199.49 48.4896 201.865 47.5 204.869ZM137 198H57C52.0294 198 48 193.971 48 189V109C48 104.029 52.0294 100 57 100H137C141.971 100 146 104.029 146 109V189C146 193.971 141.971 198 137 198ZM146.5 192.131C145.51 195.135 143.135 197.51 140.131 198.5C143.135 199.49 145.51 201.865 146.5 204.869C147.49 201.865 149.865 199.49 152.869 198.5C149.865 197.51 147.49 195.135 146.5 192.131ZM236 198H156C151.029 198 147 193.971 147 189V109C147 104.029 151.029 100 156 100H236C240.971 100 245 104.029 245 109V189C245 193.971 240.971 198 236 198ZM245.5 192.131C244.51 195.135 242.135 197.51 239.131 198.5C242.135 199.49 244.51 201.865 245.5 204.869C246.49 201.865 248.865 199.49 251.869 198.5C248.865 197.51 246.49 195.135 245.5 192.131ZM335 198H255C250.029 198 246 193.971 246 189V109C246 104.029 250.029 100 255 100H335C339.971 100 344 104.029 344 109V189C344 193.971 339.971 198 335 198ZM-42 100C-46.9706 100 -51 104.029 -51 109V189C-51 193.971 -46.9706 198 -42 198H38C42.9706 198 47 193.971 47 189V109C47 104.029 42.9706 100 38 100H-42Z" fill="url(#paint0_radial_1031_5533)"/>
<defs>
<radialGradient id="paint0_radial_1031_5533" cx="0" cy="0" r="1" gradientUnits="userSpaceOnUse" gradientTransform="translate(146.5 198.5) rotate(89.8661) scale(214.001)">
<stop stop-color="#6386FF" stop-opacity="0.9"/>
<stop offset="0.90718" stop-color="#6386FF" stop-opacity="0"/>
</radialGradient>
</defs>
</svg>
